<svg xmlns="http://www.w3.org/2000/svg" viewBox="0 0 462.33 367.75"><defs><style>.cls-1{fill:#00b4ff;}.cls-2{fill:#c28666;}.cls-3{fill:#541611;}.cls-4{fill:#a36043;}.cls-5{fill:#702823;}.cls-6{fill:#892803;}.cls-7{fill:#222b54;}.cls-13,.cls-14,.cls-7,.cls-9{fill-rule:evenodd;}.cls-8{fill:#f4a086;}.cls-9{fill:#0a3c5f;}.cls-10{fill:#ad2b5e;}.cls-11{fill:#f7b690;}.cls-12{fill:#cc346f;}.cls-13{fill:#18898d;}.cls-14{fill:#222b56;}.cls-15{fill:#3c79a6;}.cls-16{fill:#a2d1eb;}.cls-17{fill:#fefefe;}.cls-18{fill:#fff;}</style></defs><title>Asset 5</title><g id="Layer_2" data-name="Layer 2"><g id="Layer_1-2" data-name="Layer 1"><path class="cls-1" d="M70.92,164.05c9.23,22.83,3.62,52.15-21.28,64.33-13.42,6.56-31,7.61-41.37,17.27C-3.21,256.3-1,272.91,4.55,286.47,20.07,324.2,53,346.21,93.09,364.82c2,.91,3.81,1.89,5.58,2.93H317.35c11.27-1.13,23.08-.35,34.71,0h15.39c27.77-1.13,55.75-9.27,74.62-26.18,20.34-18.22,27.35-47.62,11.79-68.88-16.8-22.94-55.45-33.54-62.79-59.73-11.68-41.67,66.9-72.9,55.64-114.65-5.54-20.53-32.44-32.89-57.64-33.43s-49.25,7.86-72.81,15.36-48.75,14.35-73.56,10.6C169.83,79.82,171.54,8.42,98.1.48,57.85-3.87,26.89,22.1,19,55.07,16.69,65,18.14,88.84,36,107.77S61.7,141.23,70.92,164.05Z"/><rect class="cls-2" x="144.72" y="338.42" width="309.49" height="29.33"/><rect class="cls-3" x="152.01" y="344.6" width="142.34" height="16.98"/><rect class="cls-3" x="304.59" y="344.6" width="142.33" height="16.98"/><rect class="cls-2" x="352.93" y="254.67" width="89.07" height="80.09"/><rect class="cls-4" x="352.93" y="254.67" width="89.07" height="18.04"/><rect class="cls-5" x="359.99" y="254.67" width="11.73" height="24.3"/><rect class="cls-5" x="423.22" y="254.67" width="11.71" height="24.3"/><polygon class="cls-6" points="364.15 325.56 368.27 325.56 368.27 315.59 371.07 315.59 366.21 307.99 361.36 315.59 364.15 315.59 364.15 325.56"/><polygon class="cls-6" points="375.16 325.56 379.28 325.56 379.28 315.59 382.07 315.59 377.23 307.99 372.38 315.59 375.16 315.59 375.16 325.56"/><rect class="cls-6" x="361.36" y="326.8" width="20.71" height="1.97"/><rect class="cls-2" x="255.2" y="254.67" width="89.07" height="80.09"/><rect class="cls-4" x="255.2" y="254.67" width="89.07" height="18.04"/><rect class="cls-5" x="262.27" y="254.67" width="11.73" height="24.3"/><rect class="cls-5" x="325.49" y="254.67" width="11.72" height="24.3"/><polygon class="cls-6" points="266.43 325.56 270.56 325.56 270.56 315.59 273.35 315.59 268.49 307.99 263.63 315.59 266.43 315.59 266.43 325.56"/><polygon class="cls-6" points="277.45 325.56 281.55 325.56 281.55 315.59 284.35 315.59 279.51 307.99 274.65 315.59 277.45 315.59 277.45 325.56"/><rect class="cls-6" x="263.63" y="326.8" width="20.72" height="1.97"/><polygon class="cls-2" points="442 247.62 352.93 247.61 352.93 167.52 442 167.52 442 247.62"/><rect class="cls-4" x="352.93" y="167.52" width="89.07" height="18.04"/><rect class="cls-5" x="359.99" y="167.52" width="11.73" height="24.31"/><rect class="cls-5" x="423.22" y="167.52" width="11.71" height="24.31"/><polygon class="cls-6" points="364.15 238.42 368.27 238.42 368.27 228.45 371.07 228.45 366.21 220.85 361.36 228.45 364.15 228.45 364.15 238.42"/><polygon class="cls-6" points="375.16 238.42 379.28 238.42 379.28 228.45 382.07 228.45 377.23 220.85 372.38 228.45 375.16 228.45 375.16 238.42"/><rect class="cls-6" x="361.36" y="239.66" width="20.71" height="1.96"/><polygon class="cls-2" points="344.27 247.62 255.2 247.61 255.2 167.52 344.27 167.52 344.27 247.62"/><rect class="cls-4" x="255.2" y="167.52" width="89.07" height="18.04"/><rect class="cls-5" x="262.27" y="167.52" width="11.73" height="24.31"/><rect class="cls-5" x="325.49" y="167.52" width="11.72" height="24.31"/><polygon class="cls-6" points="266.43 238.42 270.56 238.42 270.56 228.45 273.35 228.45 268.49 220.85 263.63 228.45 266.43 228.45 266.43 238.42"/><polygon class="cls-6" points="277.45 238.42 281.55 238.42 281.55 228.45 284.35 228.45 279.51 220.85 274.65 228.45 277.45 228.45 277.45 238.42"/><rect class="cls-6" x="263.63" y="239.66" width="20.72" height="1.96"/><polygon class="cls-2" points="442 160.48 352.93 160.46 352.93 80.37 442 80.37 442 160.48"/><rect class="cls-4" x="352.93" y="80.37" width="89.07" height="18.05"/><rect class="cls-5" x="359.99" y="80.37" width="11.73" height="24.32"/><rect class="cls-5" x="423.22" y="80.37" width="11.71" height="24.32"/><polygon class="cls-6" points="364.15 151.26 368.27 151.26 368.27 141.3 371.07 141.3 366.21 133.69 361.36 141.3 364.15 141.3 364.15 151.26"/><polygon class="cls-6" points="375.16 151.26 379.28 151.26 379.28 141.3 382.07 141.3 377.23 133.69 372.38 141.3 375.16 141.3 375.16 151.26"/><rect class="cls-6" x="361.36" y="152.5" width="20.71" height="1.97"/><polygon class="cls-2" points="344.27 160.48 255.2 160.46 255.2 80.37 344.27 80.37 344.27 160.48"/><rect class="cls-4" x="255.2" y="80.37" width="89.07" height="18.05"/><rect class="cls-5" x="262.27" y="80.37" width="11.73" height="24.32"/><rect class="cls-5" x="325.49" y="80.37" width="11.72" height="24.32"/><polygon class="cls-6" points="266.43 151.26 270.56 151.26 270.56 141.3 273.35 141.3 268.49 133.69 263.63 141.3 266.43 141.3 266.43 151.26"/><polygon class="cls-6" points="277.45 151.26 281.55 151.26 281.55 141.3 284.35 141.3 279.51 133.69 274.65 141.3 277.45 141.3 277.45 151.26"/><rect class="cls-6" x="263.63" y="152.5" width="20.72" height="1.97"/><rect class="cls-2" x="156.93" y="254.67" width="89.07" height="80.09"/><rect class="cls-4" x="156.93" y="254.67" width="89.07" height="18.04"/><rect class="cls-5" x="163.98" y="254.67" width="11.73" height="24.3"/><rect class="cls-5" x="227.22" y="254.67" width="11.73" height="24.3"/><polygon class="cls-6" points="168.16 325.56 172.28 325.56 172.28 315.59 175.07 315.59 170.21 307.99 165.36 315.59 168.16 315.59 168.16 325.56"/><polygon class="cls-6" points="179.16 325.56 183.27 325.56 183.27 315.59 186.07 315.59 181.22 307.99 176.37 315.59 179.16 315.59 179.16 325.56"/><rect class="cls-6" x="165.36" y="326.8" width="20.72" height="1.97"/><polygon class="cls-2" points="246 247.62 156.93 247.61 156.93 167.52 246 167.52 246 247.62"/><rect class="cls-4" x="156.93" y="167.52" width="89.07" height="18.04"/><rect class="cls-5" x="163.98" y="167.52" width="11.73" height="24.31"/><rect class="cls-5" x="227.22" y="167.52" width="11.73" height="24.31"/><polygon class="cls-6" points="168.16 238.42 172.28 238.42 172.28 228.45 175.07 228.45 170.21 220.85 165.36 228.45 168.16 228.45 168.16 238.42"/><polygon class="cls-6" points="179.16 238.42 183.27 238.42 183.27 228.45 186.07 228.45 181.22 220.85 176.37 228.45 179.16 228.45 179.16 238.42"/><rect class="cls-6" x="165.36" y="239.66" width="20.72" height="1.96"/><polygon class="cls-2" points="246 160.48 156.93 160.46 156.93 80.37 246 80.37 246 160.48"/><rect class="cls-4" x="156.93" y="80.37" width="89.07" height="18.05"/><rect class="cls-5" x="163.98" y="80.37" width="11.73" height="24.32"/><rect class="cls-5" x="227.22" y="80.37" width="11.73" height="24.32"/><polygon class="cls-6" points="168.16 151.26 172.28 151.26 172.28 141.3 175.07 141.3 170.21 133.69 165.36 141.3 168.16 141.3 168.16 151.26"/><polygon class="cls-6" points="179.16 151.26 183.27 151.26 183.27 141.3 186.07 141.3 181.22 133.69 176.37 141.3 179.16 141.3 179.16 151.26"/><rect class="cls-6" x="165.36" y="152.5" width="20.72" height="1.97"/><path class="cls-7" d="M142,281c1.7,3.58,4,7.63,7.38,8.63,2.33.7,8.88-3.71,10.19-5.48s-2.75-87.12-5.69-92.32c-3.93-7-35,2.66-33.93,14.75,1.37,15.46,5.77,31.9,11,47.23A255.1,255.1,0,0,0,142,281Z"/><path class="cls-8" d="M103.47,360.21a22.69,22.69,0,0,0,10.19-.82q-.34-6-.68-12a3,3,0,0,0-.34-1.46,2.73,2.73,0,0,0-1.92-1c-2.78-.49-7-.65-7.1,2.83C103.51,351.89,103.53,356.06,103.47,360.21Z"/><path class="cls-8" d="M159.81,360.21a22,22,0,0,0,10.09-.82q-1.11-6-2.23-12a3.38,3.38,0,0,0-.52-1.46,3.16,3.16,0,0,0-2.05-1c-2.84-.49-7.08-.65-6.73,2.83C158.79,351.89,159.33,356.06,159.81,360.21Z"/><path class="cls-7" d="M158.68,271.15c-4.44-7.09-15.13-11.95-19.62.35-6.85,18.77,14.88,53.86,18.11,76.52h11.64C169.13,345.83,161.14,275.09,158.68,271.15Z"/><path class="cls-9" d="M102.37,212.59c2.83,2.23,6.58,2.58,10.09,2.58,28.93,0,45.67-9.41,41.66-22.7-4.1-13.65-30-11.44-43.51-7-2.91.94-7.16,1.86-9.15,4.58C98.57,194,95.49,207.17,102.37,212.59Z"/><path class="cls-8" d="M141.93,119c.95,13.29,3.55,26.91,11,37.94,1.61,2.38,4,4.85,6.81,4.55a5.75,5.75,0,0,0,4-2.74,13.29,13.29,0,0,0,1.63-4.74c2.42-13-1.54-26.23-5.49-38.84-1.63-5.19-3.79-14.39-9.08-17.19-5.51-2.91-8.28,6.1-8.78,9.77A54.23,54.23,0,0,0,141.93,119Z"/><path class="cls-10" d="M141.3,100.14c.25-2.2.84-4.79,2.88-5.75s4.47.46,6.14,2c10.16,9.11,14,22,15.85,35.77l-24.35,1.51A128.48,128.48,0,0,1,141.3,100.14Z"/><path class="cls-9" d="M104.83,281c1,3.58,2.48,7.63,5.64,8.63,2.19.7,9.63-3.71,11.3-5.48s15.08-73.38,13.19-78.57A19.75,19.75,0,0,0,119.56,193c-9.49-1.51-20.4,1.44-21.77,13.53-1.75,15.46-.66,31.9,1.47,47.23A216.21,216.21,0,0,0,104.83,281Z"/><path class="cls-11" d="M183.65,120.23c1.62-1.16,3.6-2.38,5.46-1.69a4.15,4.15,0,0,1,2.38,4.07c-.05,1.67-20.24,34.62-28.77,38.05-4.29,1.72-7.66-.67-9.39-4.43C150.91,151,177.77,124.45,183.65,120.23Z"/><path class="cls-9" d="M124.12,271.15c-2.74-7.07-13.61-12.67-19.7.35-9.8,21-3.82,52.31-2,76.52H114C114.89,345.83,125.65,275.09,124.12,271.15Z"/><path class="cls-12" d="M157.26,104.5c3,4.36,1.88,10.57,1.14,15.62-1.57,10.78-5.27,21.23-7.44,31.93s-2.73,22,1.82,32.15a15.69,15.69,0,0,1,1.7,4.85,4.28,4.28,0,0,1-2.3,4.36,8,8,0,0,1-3.31.45l-45.57-.3a5.6,5.6,0,0,1-2.92-.54c-1.82-1.14-1.19-3.61-.53-5.5,4.38-12.66.63-26.28-3.34-39s-8.79-28.31-6.61-41.54C95.26,100.39,106.22,85.2,128,85.2,143.2,85.2,154.61,100.59,157.26,104.5Z"/><path class="cls-8" d="M82.35,133.08a62.52,62.52,0,0,1,18.48-30.38c1.61-1.45,3.78-2.91,5.78-2.06a4.07,4.07,0,0,1,2.13,2.68,11.23,11.23,0,0,1,.24,3.52c-.55,13.76-3,27.36-5.54,40.9-.77,4.16-1.55,8.37-3.35,12.2s-4.75,7.3-8.71,8.8c-2.07.78-4.12-1.39-6-2.88-1.54-1.2-4.54-5.65-4.92-7.39-1.38-6.16-.4-8.5.11-14.8A62.36,62.36,0,0,1,82.35,133.08Z"/><path class="cls-13" d="M78.89,137.45a1.15,1.15,0,0,0,0,.26Z"/><path class="cls-12" d="M109.37,100.14c-.12-2.2-.54-4.79-2.52-5.75s-6,.89-7.75,2.4c-10.73,9.1-16.69,21.53-19.4,35.33l27,1.51A129.89,129.89,0,0,0,109.37,100.14Z"/><path class="cls-11" d="M136.05,154.6c1.34-1.68.78-4.32-.72-5.87s-43,1-50.11,3.53c-2.17.76-4.61,1.81-5.31,4-.62,2,.43,4.05,1.67,5.7,2.06,2.76,5,5.67,8.3,7,2.25.9,4.05-.51,6.14-1.22C103.69,165.1,135.19,155.68,136.05,154.6Z"/><path class="cls-11" d="M156.87,144.13c.48-.71.93-1.69.4-2.37a1.53,1.53,0,0,0-1.51-.42,7,7,0,0,0-1.51.66c-2.55,1.25-5.52,1.12-8.34,1.35a31.63,31.63,0,0,0-17.4,7c-4.2,3.44,3.85,7.2,7.05,6.53a38.68,38.68,0,0,0,15-6.23A27.56,27.56,0,0,0,156.87,144.13Z"/><path class="cls-14" d="M147.08,63.68c-.73,1.21-1.65.88-1.6-.52.15-4.47.3-5.17-1.72-9.19-1.11-2.21-1.47-2.39-.45-3.14C146.68,48.35,153.07,53.65,147.08,63.68Z"/><path class="cls-8" d="M134.06,70c-1.49-6.57-6.46-8.11-9.35-6.53-1.85,12.3-3.74,17.77-8.56,24.47,6,3.85,16.23,3.13,18.44,0C134.68,86.92,134.83,73.36,134.06,70Z"/><path class="cls-11" d="M128.13,52.42c4.55-5.63,13.77-4.62,17.1,2.33,3.06,6.37-.29,19.81-2.93,22.61-4.62,4.9-14.41-.71-15.77-4.38C124.53,67.61,124.31,57.15,128.13,52.42Z"/><path class="cls-14" d="M130.52,54.26c.29,1-2.13,14.63-2.51,14.48-1.33-.55-3-4.37-5.56-4.23-.8,0-1.91.57-2-1-.19-10.23-.6-9.71,1.23-10.65C125.74,50.76,130,52.43,130.52,54.26Z"/><path class="cls-14" d="M119.34,47.88c8.34-5.86,22-8.08,26-5.75,5.9,3.47,1.56,13.36-.65,13.91-1,.25-1.94-.55-2.8-1.13-4.08-2.79-7.73-.66-10.8-.09C125.64,55.82,112.23,52.87,119.34,47.88Z"/><path class="cls-11" d="M120.23,63a6.49,6.49,0,0,0,1.41,4.64c3,3.68,6-1.3,5.31-4.39C126.12,59.5,120.66,58.46,120.23,63Z"/><path class="cls-9" d="M192.1,366.1c.15-1.67-1.43-3.05-3.06-3.43a22.55,22.55,0,0,0-5-.12,13.47,13.47,0,0,1-11.58-7.15,3.35,3.35,0,0,0-1.17-1.54,2.24,2.24,0,0,0-2.42.44,24.87,24.87,0,0,0-1.76,1.93,6,6,0,0,1-4.25,1.7c-1.3,0-2.77-1-4-.36s-1.41,2.12-1.69,3.21c-.49,1.89-.93,3.79-1.39,5.68a8.11,8.11,0,0,0-.23,1.29h9.08a12.51,12.51,0,0,0,.95-3,7.14,7.14,0,0,0,.79,3h25A2.84,2.84,0,0,0,192.1,366.1Z"/><path class="cls-9" d="M118.2,366.1a3.89,3.89,0,0,0-1.35-3.43c-.71-.39-1.83-3.18-3.31-7.27-.67-1.87-4.45-2.39-6.33.83-.61,1-1.18,1.72-1.86,1.7s-1.22-1-1.77-.36-.62,2.12-.75,3.21c-.21,1.89-.4,3.79-.6,5.68,0,.42-.09.86-.11,1.29h15.73A5,5,0,0,0,118.2,366.1Z"/><path class="cls-8" d="M187.91,108.2c2-1.73,4.7-2.84,7.23-2.14a6.86,6.86,0,0,1,4.61,5.22,9.79,9.79,0,0,1-1.43,7c-1.27,2.08-6.14,6.21-11.37,4.78-3.21-.88-3.72-3.07-3.46-6A13.91,13.91,0,0,1,187.91,108.2Z"/><path class="cls-11" d="M189.8,114.33l-8.34.75a37.22,37.22,0,0,0,.93,6.42c.46,2.26,8.81,2.91,9.1,1.11C191.74,121,190.56,116.83,189.8,114.33Z"/><path class="cls-15" d="M185.38,118.73h10.09a1.54,1.54,0,0,0,1.39-1.08L203,96.22a.79.79,0,0,0-.78-1.08H192.15a1.54,1.54,0,0,0-1.39,1.08l-6.16,21.43A.79.79,0,0,0,185.38,118.73Z"/><path class="cls-16" d="M184.39,118.73h10.1a1.52,1.52,0,0,0,1.38-1.08L202,96.22a.79.79,0,0,0-.78-1.08h-10.1a1.54,1.54,0,0,0-1.38,1.08l-6.17,21.43A.8.8,0,0,0,184.39,118.73Z"/><path class="cls-14" d="M185.23,117.57h9.09a1.39,1.39,0,0,0,1.25-1l5.56-19.31a.72.72,0,0,0-.7-1h-9.1a1.39,1.39,0,0,0-1.25,1l-5.56,19.31A.72.72,0,0,0,185.23,117.57Z"/><path class="cls-11" d="M183.7,115.31c2-2.46,4.79-6.49,6.05-8a10.29,10.29,0,0,0,1-1.16,1.18,1.18,0,0,0-.06-1.43c-.5-.45-1.27-.11-1.84.23-2.76,1.68-5.7,3.55-6.9,6.55a9.17,9.17,0,0,0-.52,3.58S183.81,115.65,183.7,115.31Z"/><path class="cls-11" d="M193.26,117.42a6.35,6.35,0,0,0-.56,1.62,1.6,1.6,0,0,0,.56,1.53,2.16,2.16,0,0,0,2.14-.19,14.24,14.24,0,0,0,7-8c.56-1.62.72-3.68-.58-4.81a3.54,3.54,0,0,0-4.33.2C194.07,110.39,194.74,113.93,193.26,117.42Z"/><path class="cls-17" d="M218.88,144.65V134.51c0-.12,0-.14.14-.14h20.29c.12,0,.14,0,.14.14V154.8c0,.12,0,.14-.14.14H219c-.12,0-.14,0-.14-.14Zm3.54.37h1.42c0,.42,0,.84,0,1.26,0,.15,0,.17.18.16h3.2c.14,0,.17,0,.17.17,0,1.07,0,2.13,0,3.2,0,.13,0,.18.17.18.36,0,.72,0,1.08,0,.15,0,.18,0,.18.18,0,.41,0,.83,0,1.24h-1.29c-.11,0-.14,0-.14.14s0,.31,0,.46,0,.12.11.12c.4,0,.79,0,1.18,0,.11,0,.13,0,.13-.13s0-.39,0-.59h.71v.6c0,.08,0,.12.1.12a4.34,4.34,0,0,1,.51,0c.08,0,.1,0,.1-.1s0-.32,0-.48,0-.14-.13-.14a5.61,5.61,0,0,1-.58,0c0-.42,0-.85,0-1.27,0-.13,0-.15.15-.15.38,0,.76,0,1.13,0,.11,0,.14,0,.14-.13,0-.36,0-.73,0-1.09,0-.15,0-.22.19-.2a4.68,4.68,0,0,0,.53,0c0,.2,0,.4,0,.6s0,.12.12.12h.48c.08,0,.12,0,.12.12a5.81,5.81,0,0,0,0,.59c-.2,0-.39,0-.59,0s-.13,0-.13.14,0,.28,0,.42,0,.16-.16.15h-.42c-.12,0-.14,0-.14.14a2.16,2.16,0,0,1,0,.44c0,.11,0,.13.14.13.39,0,.78,0,1.17,0,.09,0,.12,0,.11.11s0,.32,0,.48,0,.12.12.12c.39,0,.78,0,1.18,0,.11,0,.12,0,.12-.13s0-.39,0-.59h2.7c.11,0,.14,0,.13-.14,0-.37,0-.75,0-1.13,0-.12,0-.16-.15-.15-.36,0-.73,0-1.09,0-.16,0-.19-.05-.18-.19s0-.35,0-.53h1.31c.09,0,.12,0,.11-.12v-.48c0-.09,0-.12-.11-.12h-1.31c0-.67,0-1.34,0-2,0-.07,0-.11-.11-.11h-.61v-.72H235c.11,0,.15,0,.15-.15s-.09-.44,0-.54.36,0,.55,0,.13,0,.12.13v.74c0,.18-.08.43,0,.52s.35,0,.53,0,.14,0,.14-.14v-1.82c0-.13,0-.17-.16-.17s-.41.07-.51,0,0-.34,0-.52,0-.17.16-.16.43.08.52,0,0-.34,0-.53,0-.14-.14-.14H235c-.18,0-.43-.06-.53,0s0,.35,0,.54,0,.14.15.14.44-.08.54,0,0,.36,0,.55h0c0,.09,0,.11-.1.11h-.48c-.11,0-.13,0-.13.12,0,.44,0,.87,0,1.3h-.6c-.08,0-.12,0-.11.11s0,.33,0,.49,0,.11.12.11h.58c0,.19,0,.39,0,.58s0,.12-.11.12H231c-.08,0-.11,0-.11-.1s0-.32,0-.48,0-.13-.12-.13h-1.29c0-.2,0-.41,0-.62s0-.1.11-.1h.48c.09,0,.13,0,.12-.12a2.94,2.94,0,0,1,0-.42c0-.13,0-.18-.17-.18h-1.95c0-.18,0-.37,0-.55s0-.17.16-.17c.38,0,.76,0,1.13,0,.09,0,.14,0,.13-.12a3.84,3.84,0,0,1,0-.48c0-.1,0-.11-.12-.11s-.3,0-.46,0-.14,0-.13-.14,0-.3,0-.45,0-.12-.12-.12H224c-.11,0-.13,0-.12.13v.58h-.58c-.12,0-.14,0-.13.14s0,.31,0,.47,0,.1-.1.1h-.47c-.11,0-.15,0-.14.13s0,.38,0,.58h-.58c-.09,0-.13,0-.13.13,0,.39,0,.78,0,1.18,0,.09,0,.11.12.11H223c.09,0,.13,0,.12-.11a3.53,3.53,0,0,1,0-.46c0-.1,0-.16-.13-.14s-.05,0-.07,0-.39.06-.48,0,0-.32,0-.49Zm7.08-3.53h-.59c-.08,0-.12,0-.12.1a4.34,4.34,0,0,1,0,.51c0,.09,0,.1.12.1h.59c0,.2,0,.39,0,.58s0,.14.14.13h.44c.11,0,.13,0,.13.14,0,.38,0,.76,0,1.14,0,.1,0,.15.13.14h.58v.58c0,.09,0,.13.12.13h1.18c.09,0,.12,0,.11-.12,0-.39,0-.79,0-1.18,0-.11,0-.12-.14-.12h-.58a1,1,0,0,0,0-.17c0-.18.08-.41,0-.51s-.32,0-.49,0-.19,0-.19-.18c0-1.08,0-2.15,0-3.22,0-.12,0-.15-.14-.15h-1.15c-.1,0-.14,0-.13-.13s0-.32,0-.48,0-.11-.1-.11h-.46c-.12,0-.16,0-.15-.15s.07-.42,0-.53-.36,0-.54,0-.15,0-.15-.15.09-.44,0-.53-.37,0-.57,0-.1,0-.1.11v1.91c0,.09,0,.11.11.1H228c.11,0,.13,0,.13.13s0,.39,0,.58h-.6c-.08,0-.12,0-.11.1v.51c0,.08,0,.1.09.1H228c.1,0,.14,0,.14-.13s0-.39,0-.58c.2,0,.4,0,.6,0s.12,0,.11.12,0,.31,0,.47,0,.12.12.12h.59Zm-7.79-1.79c0,.78,0,1.57,0,2.35,0,.12,0,.15.15.15h4.67c.11,0,.14,0,.14-.15v-4.67c0-.11,0-.14-.14-.14h-4.67c-.12,0-.15,0-.15.14C221.72,138.15,221.71,138.93,221.71,139.7Zm14.87,0v-2.34c0-.11,0-.14-.14-.14h-4.67c-.12,0-.15,0-.15.14,0,1.56,0,3.12,0,4.67,0,.12,0,.15.15.15h4.67c.11,0,.14,0,.14-.15Zm-9.91,9.93v-2.36c0-.11,0-.14-.14-.14h-4.67c-.12,0-.15,0-.15.14,0,1.56,0,3.12,0,4.67,0,.12,0,.15.15.15,1.55,0,3.11,0,4.67,0,.11,0,.14,0,.14-.15Zm7.08-5.67v-.51c0-.19.06-.44,0-.53s-.37,0-.56,0-.12,0-.12.13v1.43c0,.18-.06.44,0,.53s.37,0,.56,0,.12,0,.12-.13Zm-3.55-6h.6c.1,0,.12,0,.12-.12a3.84,3.84,0,0,1,0-.48c0-.07,0-.11-.1-.11H229.6c-.08,0-.1,0-.1.1s0,.34,0,.51,0,.1.1.1Zm-2.11,3.9c0-.36,0-.36-.37-.36s-.34,0-.34.34,0,.36.36.36S228.09,142.19,228.09,141.85Zm-5.67,1.41c0-.36,0-.36-.36-.36s-.35,0-.35.35,0,.36.37.36S222.42,143.61,222.42,143.26Zm9.2,2.83c0,.35,0,.35.36.35s.35,0,.35-.35,0-.36-.35-.36S231.62,145.73,231.62,146.09Z"/><path d="M234.45,146.45h.61c.1,0,.11,0,.11.11,0,.68,0,1.35,0,2h-1.28c-.12,0-.14,0-.13-.14s0-.31,0-.46,0-.11-.12-.11h-1.89c-.1,0-.12,0-.12.13s0,.38,0,.58h0a4.68,4.68,0,0,1-.53,0c-.17,0-.19.05-.19.2,0,.36,0,.73,0,1.09,0,.11,0,.14-.14.13-.37,0-.75,0-1.13,0-.12,0-.15,0-.15.15,0,.42,0,.85,0,1.27h-.7c0-.41,0-.83,0-1.24,0-.14,0-.19-.18-.18-.36,0-.72,0-1.08,0-.14,0-.17-.05-.17-.18,0-1.07,0-2.13,0-3.2,0-.14,0-.17-.17-.17H224c-.13,0-.18,0-.18-.16,0-.42,0-.84,0-1.26H226v.6c0,.08,0,.12.1.12a4.34,4.34,0,0,1,.51,0c.08,0,.1,0,.1-.1s0-.32,0-.48,0-.14-.13-.14H226v-.71h.6c.07,0,.12,0,.11-.1s0-.34,0-.51,0-.1-.1-.1h-.47c-.11,0-.15,0-.14.13s0,.39,0,.58h-.58c-.11,0-.13,0-.13-.14s0-.29,0-.44,0-.13-.14-.13h-1.28V143c0-.1,0-.13.12-.13h4.72c.08,0,.12,0,.12.12s0,.3,0,.45,0,.15.13.14.31,0,.46,0,.13,0,.12.11a3.84,3.84,0,0,0,0,.48c0,.11,0,.12-.13.12-.37,0-.75,0-1.13,0-.14,0-.17,0-.16.17s0,.37,0,.55h-.6c-.08,0-.12,0-.11.11v.51c0,.07,0,.1.09.1a3.84,3.84,0,0,1,.48,0c.1,0,.14,0,.14-.14s0-.38,0-.58h2c.15,0,.18,0,.17.18a2.94,2.94,0,0,0,0,.42c0,.1,0,.12-.12.12h-.48c-.07,0-.12,0-.11.1s0,.42,0,.62h-.62c-.09,0-.1,0-.1.11a3.84,3.84,0,0,1,0,.48c0,.11,0,.13.13.12s.39,0,.58,0v.7h-1.29c-.08,0-.13,0-.13.11s-.06.43,0,.56.34,0,.52,0h0c.11,0,.15,0,.15.14s-.09.44,0,.53.37,0,.56,0h0c.06,0,.09,0,.09-.08,0-.45,0-.89,0-1.34h.62c.09,0,.1,0,.1-.11s0-.32,0-.48,0-.13-.13-.12h-.58v-.7h1.29c.1,0,.12,0,.12.13s0,.32,0,.48,0,.1.11.1h3.33c.1,0,.11,0,.11-.12s0-.39,0-.58Z"/><path d="M221.71,139.7c0-.77,0-1.55,0-2.32,0-.11,0-.14.15-.14h4.67c.11,0,.14,0,.14.14v4.67c0,.12,0,.15-.14.15h-4.67c-.12,0-.15,0-.15-.15C221.72,141.27,221.71,140.48,221.71,139.7Zm2.46,1.79c.55,0,1.1,0,1.65,0,.11,0,.14,0,.14-.15v-3.25c0-.12,0-.15-.14-.15h-3.26c-.11,0-.14,0-.14.15v3.25c0,.12,0,.15.14.15C223.1,141.48,223.64,141.49,224.17,141.49Z"/><path d="M236.58,139.72v2.33c0,.12,0,.15-.14.15h-4.67c-.12,0-.15,0-.15-.15,0-1.55,0-3.11,0-4.67,0-.11,0-.14.15-.14h4.67c.11,0,.14,0,.14.14Zm-4.25,0c0,.55,0,1.1,0,1.64,0,.12,0,.15.14.15,1.09,0,2.18,0,3.26,0,.12,0,.15,0,.15-.15,0-1.08,0-2.17,0-3.25,0-.12,0-.15-.14-.15h-3.26c-.11,0-.14,0-.14.15C232.34,138.63,232.33,139.16,232.33,139.7Z"/><path d="M226.67,149.65V152c0,.12,0,.15-.14.15-1.56,0-3.12,0-4.67,0-.12,0-.15,0-.15-.15,0-1.55,0-3.11,0-4.67,0-.11,0-.14.15-.14h4.67c.11,0,.14,0,.14.14Zm-4.25,0c0,.54,0,1.08,0,1.63,0,.11,0,.14.14.14h3.26c.12,0,.14,0,.14-.14V148c0-.12,0-.15-.14-.14h-3.26c-.11,0-.14,0-.14.14C222.43,148.54,222.42,149.08,222.42,149.63Z"/><path d="M228.09,140.07c0-.19,0-.39,0-.58s0-.14-.13-.13h-.47c-.09,0-.12,0-.11-.1v-1.91c0-.09,0-.12.1-.11s.44-.07.57,0,0,.35,0,.53,0,.15.15.15.43-.08.54,0,0,.35,0,.53,0,.16.15.15h.46c.08,0,.11,0,.1.11s0,.32,0,.48,0,.13.13.13h1.15c.12,0,.14,0,.14.15,0,1.07,0,2.14,0,3.22,0,.15,0,.19.19.18s.4-.07.49,0,0,.33,0,.51a1,1,0,0,1,0,.17H231c-.07,0-.1,0-.09.1s0,.41,0,.61h-.57c-.12,0-.13,0-.13-.14,0-.38,0-.76,0-1.14,0-.11,0-.15-.13-.14h-.44c-.11,0-.15,0-.14-.13s0-.38,0-.58h.6c.07,0,.12,0,.11-.1a4.34,4.34,0,0,1,0-.51c0-.1,0-.11-.11-.1h-.6v-.71h.6c.07,0,.12,0,.11-.1s0-.34,0-.51,0-.1-.1-.1-.32,0-.47,0-.15,0-.14.13,0,.39,0,.58h-.59c-.1,0-.12,0-.12-.12s0-.31,0-.47,0-.13-.11-.12-.4,0-.6,0Z"/><path d="M235.16,149.27c0,.18,0,.35,0,.53s0,.19.18.19c.36,0,.73,0,1.09,0,.13,0,.16,0,.15.15,0,.38,0,.76,0,1.13,0,.11,0,.14-.13.14h-2.7v-.61c0-.08,0-.1-.1-.1H233V150h.58c.11,0,.14,0,.13-.13s0-.31,0-.46,0-.12.11-.12h1.3Z"/><path d="M234.46,145.74c0-.43,0-.86,0-1.3,0-.09,0-.13.13-.12h.48c.08,0,.12,0,.1-.11h0c0-.19.07-.44,0-.55s-.35,0-.54,0-.16,0-.15-.14-.07-.44,0-.54.35,0,.53,0h1.42c.11,0,.15,0,.14.14s.06.42,0,.53-.34,0-.52,0-.17,0-.16.16-.08.42,0,.52.34,0,.51,0,.17,0,.16.17v1.82c0,.12,0,.15-.14.14s-.42.06-.53,0,0-.34,0-.52v-.74c0-.1,0-.13-.12-.13s-.44-.06-.55,0,0,.36,0,.54,0,.15-.15.15h-.56Z"/><path d="M233.75,151.39c0,.2,0,.39,0,.59s0,.13-.12.13c-.4,0-.79,0-1.18,0-.1,0-.12,0-.12-.12s0-.32,0-.48,0-.12-.11-.11c-.39,0-.78,0-1.17,0-.1,0-.14,0-.14-.13a2.16,2.16,0,0,0,0-.44c0-.11,0-.15.14-.14h.42c.12,0,.17,0,.16-.15s0-.28,0-.42,0-.15.13-.14.39,0,.59,0h0c0,.2,0,.41,0,.61s0,.1.1.1H233v.61c0,.08,0,.1.1.1s.41,0,.61,0Z"/><path d="M231.62,143.61h.58c.1,0,.14,0,.14.12,0,.39,0,.79,0,1.18,0,.09,0,.12-.11.12H231c-.11,0-.13,0-.12-.13v-.58h.61c.07,0,.1,0,.1-.1s0-.41,0-.61Z"/><path d="M222.42,145c0-.2,0-.39,0-.58s0-.14.14-.13H223c.08,0,.1,0,.1-.1s0-.32,0-.47,0-.15.13-.14h.58V145h-1.42Z"/><path d="M233.75,144v.92c0,.09,0,.14-.12.13s-.44.08-.56,0,0-.35,0-.53V143c0-.1,0-.14.12-.13s.44-.08.56,0,0,.34,0,.53Z"/><path d="M232.34,150a5.81,5.81,0,0,1,0-.59c0-.1,0-.12-.12-.12h-.48c-.09,0-.12,0-.12-.12s0-.4,0-.6h1.3c.09,0,.11,0,.11.12V150h-.7Z"/><path d="M222.42,145v.2c0,.17-.07.39,0,.49s.32,0,.48,0,0,0,.07,0,.14,0,.13.14a3.53,3.53,0,0,0,0,.46c0,.09,0,.11-.12.11h-1.18c-.09,0-.12,0-.12-.11,0-.4,0-.79,0-1.18,0-.11,0-.13.13-.13h.58Z"/><path d="M230.2,138h-.6c-.07,0-.1,0-.1-.1s0-.34,0-.51,0-.1.1-.1h1.22c.09,0,.1,0,.1.11a3.84,3.84,0,0,0,0,.48c0,.09,0,.12-.12.12Z"/><path d="M235.16,148.57h1.31c.09,0,.12,0,.11.12v.48c0,.09,0,.12-.11.12h-1.3v-.72Z"/><path d="M228.79,151.39c0,.2,0,.39,0,.59s0,.13-.13.13c-.39,0-.78,0-1.18,0-.09,0-.12,0-.11-.12s0-.31,0-.46,0-.14.14-.14h1.28Z"/><path d="M228.08,140.07c0,.19,0,.39,0,.58s0,.14-.14.13h-.48c-.07,0-.1,0-.09-.1v-.51c0-.09,0-.1.11-.1h.59Z"/><path d="M228.09,141.85c0,.34,0,.34-.35.34s-.36,0-.36-.36,0-.34.34-.34S228.09,141.49,228.09,141.85Z"/><path d="M229.5,142.19h-.59c-.08,0-.12,0-.12-.1a4.34,4.34,0,0,0,0-.51c0-.1,0-.11.12-.1h.59v.72Z"/><path d="M222.42,143.26c0,.35,0,.35-.34.35s-.37,0-.37-.36,0-.35.35-.35S222.42,142.9,222.42,143.26Z"/><path d="M231.62,146.09c0-.36,0-.36.36-.36s.35,0,.35.36,0,.35-.35.35S231.62,146.44,231.62,146.09Z"/><path d="M234.45,145.73v.72h-.58c-.08,0-.13,0-.12-.11s0-.33,0-.49,0-.11.11-.11h.59Z"/><path d="M229.5,151.4a5.61,5.61,0,0,0,.58,0c.11,0,.14,0,.13.14s0,.32,0,.48,0,.1-.1.1a4.34,4.34,0,0,0-.51,0c-.09,0-.1,0-.1-.12v-.6Z"/><path class="cls-17" d="M235.17,148.56v.72h-1.31c-.09,0-.12,0-.11.12s0,.3,0,.46,0,.14-.13.13H233v-1.3c0-.09,0-.12-.11-.12h-1.31c0-.2,0-.39,0-.58s0-.14.12-.13h1.89c.09,0,.13,0,.12.11s0,.31,0,.46,0,.14.13.14Z"/><path class="cls-17" d="M223.84,145v-1.42h1.28c.11,0,.14,0,.14.13s0,.3,0,.44,0,.15.13.14H226V145h-2.12Z"/><path class="cls-17" d="M229.49,147.85c0,.45,0,.89,0,1.34,0,.07,0,.09-.09.08h0c-.19,0-.44.07-.56,0s0-.35,0-.53,0-.16-.15-.14h0c-.18,0-.44.07-.52,0s0-.37,0-.56,0-.11.13-.11h1.28Z"/><path class="cls-17" d="M226,145h.58c.11,0,.14,0,.13.14s0,.32,0,.48,0,.1-.1.1a4.34,4.34,0,0,0-.51,0c-.09,0-.1,0-.1-.12V145Z"/><path class="cls-17" d="M228.08,145c0,.2,0,.39,0,.58s0,.14-.14.14a3.84,3.84,0,0,0-.48,0c-.07,0-.1,0-.09-.1v-.51c0-.1,0-.11.11-.11h.59Z"/><path class="cls-17" d="M229.5,147.15c-.19,0-.39,0-.58,0s-.14,0-.13-.12a3.84,3.84,0,0,0,0-.48c0-.07,0-.11.1-.11h.62c0,.23,0,.47,0,.7Z"/><path class="cls-17" d="M229.5,147.15h.58c.09,0,.14,0,.13.12s0,.32,0,.48,0,.11-.1.11h-.61v-.7Z"/><path class="cls-17" d="M226,144.32c0-.19,0-.39,0-.58s0-.14.14-.13h.47c.08,0,.1,0,.1.1s0,.34,0,.51,0,.1-.11.1Z"/><path class="cls-17" d="M224.17,141.49c-.53,0-1.07,0-1.61,0-.11,0-.14,0-.14-.15v-3.25c0-.12,0-.15.14-.15h3.26c.12,0,.14,0,.14.15v3.25c0,.12,0,.15-.14.15C225.27,141.48,224.72,141.49,224.17,141.49Zm-1-1.79v1c0,.1,0,.13.12.13h1.88c.1,0,.13,0,.13-.13,0-.62,0-1.25,0-1.87,0-.1,0-.13-.13-.13h-1.88c-.1,0-.12,0-.12.13Z"/><path class="cls-17" d="M232.33,139.7c0-.54,0-1.07,0-1.61,0-.12,0-.15.14-.15h3.26c.12,0,.15,0,.14.15,0,1.08,0,2.17,0,3.25,0,.12,0,.15-.15.15-1.08,0-2.17,0-3.26,0-.11,0-.14,0-.14-.15C232.34,140.8,232.33,140.25,232.33,139.7Zm1.76,1.08H235c.1,0,.13,0,.13-.13,0-.62,0-1.25,0-1.87,0-.1,0-.13-.13-.13h-1.88c-.1,0-.12,0-.12.13v1.87c0,.11,0,.13.13.13Z"/><path class="cls-17" d="M222.42,149.63c0-.55,0-1.09,0-1.63,0-.12,0-.15.14-.14h3.26c.11,0,.14,0,.14.14v3.26c0,.11,0,.14-.14.14h-3.26c-.11,0-.14,0-.14-.14C222.43,150.71,222.42,150.17,222.42,149.63Zm.71,0v1c0,.1,0,.12.12.12h1.88c.1,0,.13,0,.13-.13,0-.62,0-1.25,0-1.87,0-.1,0-.13-.13-.13h-1.88c-.1,0-.12,0-.12.13Z"/><path class="cls-17" d="M229.5,140.78c0-.19,0-.39,0-.58s0-.14.14-.13.31,0,.47,0,.1,0,.1.1,0,.34,0,.51,0,.1-.11.1Z"/><path class="cls-17" d="M229.5,142.2v-.72h.6c.07,0,.12,0,.11.1a4.34,4.34,0,0,0,0,.51c0,.09,0,.1-.11.1Z"/><path class="cls-17" d="M231.63,143.61c0,.2,0,.41,0,.61s0,.1-.1.1h-.62c0-.2,0-.41,0-.61s0-.1.09-.1Z"/><path class="cls-17" d="M232.33,150H233v.71h-.61c-.08,0-.1,0-.1-.1S232.33,150.18,232.33,150Z"/><path class="cls-17" d="M233.75,151.4c-.2,0-.41,0-.61,0s-.1,0-.1-.1v-.61h.61c.08,0,.1,0,.1.1Z"/><path d="M223.13,139.7v-.92c0-.1,0-.13.12-.13h1.88c.1,0,.13,0,.13.13,0,.62,0,1.25,0,1.87,0,.1,0,.13-.13.13h-1.88c-.1,0-.12,0-.12-.13Z"/><path d="M234.09,140.78h-.92c-.1,0-.13,0-.13-.13v-1.87c0-.1,0-.13.12-.13H235c.1,0,.13,0,.13.13,0,.62,0,1.25,0,1.87,0,.1,0,.13-.13.13Z"/><path d="M223.13,149.61v-.92c0-.1,0-.13.12-.13h1.88c.1,0,.13,0,.13.13,0,.62,0,1.25,0,1.87,0,.1,0,.13-.13.13h-1.88c-.09,0-.12,0-.12-.12Z"/><path class="cls-17" d="M319.83,145.36V135.22c0-.12,0-.14.14-.14h20.28c.12,0,.15,0,.15.14q0,10.14,0,20.28c0,.12,0,.15-.15.15q-10.14,0-20.28,0c-.12,0-.14,0-.14-.15Zm3.54.37h1.42c0,.42,0,.84,0,1.26,0,.14.05.16.18.16h3.2c.14,0,.17,0,.17.17,0,1.06,0,2.13,0,3.2,0,.13,0,.18.17.17h1.08c.15,0,.18,0,.17.18v1.24h-1.28c-.12,0-.14,0-.14.14a3.53,3.53,0,0,1,0,.46c0,.09,0,.12.12.12h1.18c.11,0,.13,0,.12-.14v-.58h.71v.6c0,.08,0,.12.1.12h.51c.08,0,.1,0,.1-.09a3.84,3.84,0,0,1,0-.48c0-.1,0-.14-.13-.14h-.58v-1.27c0-.13,0-.16.15-.15h1.13c.11,0,.14,0,.14-.13,0-.37,0-.73,0-1.1,0-.14,0-.21.19-.19a4.68,4.68,0,0,0,.53,0c0,.2,0,.4,0,.6s0,.12.12.11.32,0,.47,0,.13,0,.12.11v.6h-.58c-.12,0-.13,0-.13.14s0,.28,0,.42,0,.16-.16.15-.28,0-.42,0-.14,0-.14.14a3.23,3.23,0,0,1,0,.44c0,.12,0,.14.14.14h1.16c.1,0,.13,0,.12.12s0,.32,0,.48,0,.12.11.12h1.19c.1,0,.12,0,.12-.13s0-.39,0-.59h2.71c.11,0,.13,0,.13-.14,0-.37,0-.75,0-1.13,0-.12,0-.16-.15-.15h-1.09c-.16,0-.19,0-.18-.18s0-.35,0-.53h1.3c.1,0,.12,0,.12-.11a3.84,3.84,0,0,1,0-.48c0-.09,0-.12-.12-.12h-1.3v-2c0-.07,0-.12-.1-.11h-.61v-.72H336c.11,0,.15,0,.15-.14s-.09-.44,0-.54.36,0,.54,0,.14,0,.13.13v.74c0,.18-.08.43,0,.52s.34,0,.53,0,.14,0,.14-.14c0-.61,0-1.22,0-1.82,0-.13,0-.18-.16-.17s-.41.07-.51,0,0-.34,0-.52,0-.17.16-.17.43.09.52,0,0-.35,0-.53,0-.14-.14-.14H336c-.18,0-.43-.06-.53,0s0,.35,0,.54,0,.14.15.14.44-.08.54,0,0,.36,0,.54v0c0,.09,0,.11-.11.11h-.47c-.11,0-.13,0-.13.13,0,.43,0,.86,0,1.29h-.6c-.08,0-.12,0-.12.11a4,4,0,0,1,0,.49c0,.1,0,.11.13.11h.58c0,.2,0,.39,0,.59s0,.12-.12.12H332c-.08,0-.11,0-.11-.11s0-.32,0-.47,0-.13-.13-.13h-1.28c0-.21,0-.41,0-.62s0-.1.11-.1H331c.09,0,.13,0,.12-.11a2.94,2.94,0,0,1,0-.42c0-.14,0-.18-.17-.18-.65,0-1.31,0-2,0h0c0-.19,0-.37,0-.55s0-.17.16-.17h1.13c.09,0,.14,0,.13-.12a3.84,3.84,0,0,1,0-.48c0-.1,0-.12-.12-.11h-.46c-.11,0-.14,0-.13-.14s0-.3,0-.46,0-.11-.12-.11h-4.71c-.11,0-.13,0-.13.13s0,.39,0,.58c-.2,0-.39,0-.58,0s-.14,0-.13.13,0,.32,0,.48,0,.1-.1.1h-.47c-.11,0-.15,0-.14.14s0,.38,0,.58h-.58c-.09,0-.13,0-.13.12,0,.4,0,.79,0,1.19,0,.09,0,.11.12.11H324c.09,0,.13,0,.12-.11a3.53,3.53,0,0,1,0-.46c0-.11,0-.16-.13-.14h-.07c-.17,0-.39.06-.48,0s0-.32,0-.48Zm7.08-3.53h-.6c-.07,0-.12,0-.11.1a4.34,4.34,0,0,1,0,.51c0,.1,0,.11.11.1h.6c0,.19,0,.39,0,.58s0,.14.14.13.29,0,.44,0,.13,0,.13.13c0,.39,0,.77,0,1.15,0,.1,0,.15.14.14h.58c0,.2,0,.39,0,.59s0,.13.12.13c.4,0,.79,0,1.19,0,.09,0,.11,0,.11-.12v-1.18c0-.11,0-.13-.13-.12h-.58a1.08,1.08,0,0,0,0-.18c0-.17.08-.4,0-.5s-.33,0-.5,0-.18,0-.18-.18c0-1.07,0-2.14,0-3.22,0-.11,0-.14-.15-.14-.38,0-.76,0-1.15,0-.09,0-.13,0-.12-.12s0-.32,0-.48,0-.11-.11-.11h-.46c-.11,0-.15,0-.14-.15s.07-.43,0-.53-.35,0-.54,0-.14,0-.14-.15.08-.45,0-.54-.38,0-.57,0-.11,0-.11.1q0,1,0,1.92c0,.08,0,.11.11.1s.32,0,.48,0,.13,0,.13.13,0,.39,0,.58h-.6c-.08,0-.12,0-.12.1a4.34,4.34,0,0,1,0,.51c0,.08,0,.1.1.1a3.84,3.84,0,0,1,.48,0c.1,0,.14,0,.14-.13a5.66,5.66,0,0,1,0-.58h.6c.09,0,.12,0,.11.12s0,.31,0,.47,0,.12.11.12.4,0,.6,0h0Zm-7.79-1.79v2.35c0,.12,0,.15.14.15h4.68c.11,0,.14,0,.14-.15v-4.67c0-.12,0-.15-.14-.15H322.8c-.11,0-.14,0-.14.15Zm14.87,0v-2.33c0-.12,0-.15-.14-.15h-4.68c-.11,0-.14,0-.14.15v4.67c0,.12,0,.15.14.15h4.68c.11,0,.14,0,.14-.15Zm-9.91,9.93c0-.78,0-1.57,0-2.35,0-.12,0-.15-.14-.14H322.8c-.11,0-.14,0-.14.14v4.67c0,.12,0,.15.14.15h4.68c.11,0,.14,0,.14-.15C327.61,151.9,327.62,151.13,327.62,150.35Zm7.08-5.66v-.52c0-.18.06-.43,0-.52s-.37,0-.56,0-.12,0-.12.13v1.43c0,.18-.07.44,0,.53s.36,0,.56,0,.12,0,.12-.13C334.69,145.3,334.7,145,334.7,144.69Zm-3.55-6h.6c.1,0,.12,0,.12-.12a3.84,3.84,0,0,1,0-.48c0-.07,0-.12-.1-.12h-1.22c-.08,0-.1,0-.1.1v.51c0,.08,0,.1.1.1ZM329,142.56c0-.37,0-.37-.36-.37s-.34,0-.34.35,0,.36.36.36S329,142.9,329,142.56ZM323.37,144c0-.36,0-.36-.36-.36s-.35,0-.35.35,0,.36.37.36S323.37,144.32,323.37,144Zm9.2,2.82c0,.36,0,.36.36.36s.35,0,.35-.35,0-.36-.35-.36S332.57,146.44,332.57,146.79Z"/><path d="M335.4,147.16H336c.1,0,.1,0,.1.11v2h-1.28c-.12,0-.14,0-.14-.14s0-.31,0-.46,0-.12-.12-.12h-1.89c-.1,0-.12,0-.12.13s0,.39,0,.59h0a4.68,4.68,0,0,1-.53,0c-.17,0-.19,0-.19.19,0,.37,0,.73,0,1.1,0,.11,0,.13-.14.13H330.6c-.12,0-.16,0-.15.15v1.27h-.71v-1.24c0-.14,0-.19-.17-.18h-1.08c-.15,0-.17,0-.17-.17,0-1.07,0-2.14,0-3.2,0-.14,0-.17-.17-.17H325c-.13,0-.18,0-.18-.16,0-.42,0-.84,0-1.26h2.12v.6c0,.08,0,.12.1.11h.51c.08,0,.1,0,.1-.1a3.68,3.68,0,0,1,0-.47c0-.1,0-.15-.13-.14h-.58V145h.6c.07,0,.11,0,.11-.1a4.34,4.34,0,0,1,0-.51c0-.08,0-.11-.1-.1H327c-.1,0-.14,0-.13.13s0,.39,0,.58h-.58c-.11,0-.14,0-.13-.14s0-.29,0-.44,0-.14-.13-.13h-1.28c0-.19,0-.39,0-.58s0-.13.13-.13h4.71c.09,0,.13,0,.12.11s0,.31,0,.46,0,.15.13.14h.46c.09,0,.13,0,.12.11a3.84,3.84,0,0,0,0,.48c0,.11,0,.12-.13.12h-1.13c-.14,0-.17,0-.16.17s0,.36,0,.55h-.6c-.08,0-.12,0-.12.1a4.34,4.34,0,0,1,0,.51c0,.08,0,.11.1.1h.48c.1,0,.14,0,.14-.13a5.61,5.61,0,0,1,0-.58c.65,0,1.31,0,2,0,.15,0,.18,0,.17.18a2.94,2.94,0,0,0,0,.42c0,.1,0,.12-.12.11h-.48c-.07,0-.12,0-.11.1s0,.41,0,.62h-.62c-.09,0-.1,0-.1.11s0,.32,0,.48,0,.12.13.12.39,0,.58,0v.7h-1.28c-.08,0-.14,0-.13.11s-.06.44,0,.57.34,0,.52,0h0c.11,0,.15,0,.14.14s-.08.45,0,.54.37,0,.56,0h0c.06,0,.09,0,.09-.08,0-.45,0-.9,0-1.34h.62c.09,0,.1,0,.1-.12a3.69,3.69,0,0,1,0-.47c0-.11,0-.13-.13-.12h-.58v-.71h1.29c.11,0,.13,0,.13.13s0,.31,0,.47,0,.11.11.11h3.32c.11,0,.12,0,.12-.12s0-.39,0-.59Z"/><path d="M322.66,140.41v-2.32c0-.12,0-.15.14-.15h4.68c.11,0,.14,0,.14.15v4.67c0,.12,0,.15-.14.15H322.8c-.11,0-.14,0-.14-.15Zm2.46,1.78h1.65c.11,0,.14,0,.14-.15V138.8c0-.12,0-.15-.14-.15h-3.26c-.11,0-.14,0-.14.15v3.25c0,.12,0,.15.14.15Z"/><path d="M337.53,140.42v2.34c0,.12,0,.15-.14.15h-4.68c-.11,0-.14,0-.14-.15v-4.67c0-.12,0-.15.14-.15h4.68c.11,0,.14,0,.14.15Zm-4.25,0v1.64c0,.12,0,.15.14.15h3.26c.11,0,.14,0,.14-.15V138.8c0-.12,0-.15-.14-.15h-3.26c-.11,0-.14,0-.14.15Z"/><path d="M327.62,150.35c0,.78,0,1.55,0,2.32,0,.12,0,.15-.14.15H322.8c-.11,0-.14,0-.14-.15V148c0-.12,0-.15.14-.14h4.68c.11,0,.14,0,.14.14C327.61,148.78,327.62,149.57,327.62,150.35Zm-4.25,0V152c0,.12,0,.15.14.15,1.09,0,2.17,0,3.26,0,.11,0,.14,0,.14-.15v-3.25c0-.12,0-.15-.14-.15h-3.26c-.11,0-.14,0-.14.15Z"/><path d="M329,140.78c0-.19,0-.39,0-.58s0-.14-.13-.13-.32,0-.48,0-.11,0-.11-.1q0-1,0-1.92c0-.08,0-.11.11-.1s.44-.07.57,0,0,.36,0,.54,0,.15.14.15.44-.08.54,0,0,.35,0,.53,0,.15.14.15h.46c.09,0,.11,0,.11.11s0,.32,0,.48,0,.12.12.12c.39,0,.77,0,1.15,0,.12,0,.15,0,.15.14,0,1.08,0,2.15,0,3.22,0,.16,0,.19.18.18s.4-.06.5,0,0,.33,0,.5a1.08,1.08,0,0,1,0,.18H332c-.08,0-.1,0-.1.1s0,.4,0,.61h-.57c-.12,0-.14,0-.14-.14,0-.38,0-.76,0-1.15,0-.1,0-.14-.13-.13s-.3,0-.44,0-.15,0-.14-.13,0-.39,0-.58H331c.08,0,.12,0,.12-.1a4.34,4.34,0,0,1,0-.51c0-.09,0-.1-.12-.1h-.59v-.72h.6c.07,0,.11,0,.11-.1a4.34,4.34,0,0,1,0-.51c0-.08,0-.11-.1-.1h-.48c-.1,0-.14,0-.13.13s0,.39,0,.58c-.2,0-.4,0-.6,0s-.11,0-.11-.12,0-.32,0-.47,0-.13-.11-.12H329Z"/><path d="M336.11,150c0,.18,0,.35,0,.53s0,.19.18.18h1.09c.13,0,.15,0,.15.15,0,.38,0,.76,0,1.13,0,.11,0,.14-.13.14h-2.7c0-.21,0-.41,0-.62s0-.1-.1-.09H334v-.71h.58c.11,0,.13,0,.13-.14s0-.3,0-.45,0-.12.12-.12Z"/><path d="M335.41,146.44c0-.43,0-.86,0-1.29,0-.09,0-.13.13-.13H336c.09,0,.13,0,.11-.11v0c0-.18.07-.43,0-.54s-.36,0-.54,0-.16,0-.15-.14-.07-.44,0-.54.35,0,.53,0h1.42c.11,0,.15,0,.14.14s.06.42,0,.53-.34,0-.52,0-.18,0-.16.17-.08.42,0,.52.33,0,.51,0,.16,0,.16.17c0,.6,0,1.21,0,1.82,0,.12,0,.15-.14.14s-.43.06-.53,0,0-.34,0-.52v-.74c0-.11,0-.13-.13-.13s-.43-.06-.54,0,0,.36,0,.54,0,.15-.15.14h-.56Z"/><path d="M334.69,152.1c0,.2,0,.39,0,.59s0,.13-.12.13h-1.19c-.09,0-.11,0-.11-.12s0-.32,0-.48,0-.12-.12-.12H332c-.11,0-.15,0-.14-.14a3.23,3.23,0,0,0,0-.44c0-.1,0-.14.14-.14s.28,0,.42,0,.17,0,.16-.15,0-.28,0-.42,0-.15.13-.14h.58v.61c0,.08,0,.1.1.1s.41,0,.61,0h0V152c0,.08,0,.1.1.1s.4,0,.61,0Z"/><path d="M332.57,144.32h.58c.1,0,.14,0,.13.12v1.18c0,.09,0,.12-.11.12-.4,0-.79,0-1.19,0-.1,0-.12,0-.12-.13s0-.39,0-.59h.61c.07,0,.1,0,.09-.1s0-.41,0-.61Z"/><path d="M323.37,145.74c0-.2,0-.39,0-.58s0-.14.14-.14H324c.08,0,.1,0,.1-.1s0-.32,0-.48,0-.14.13-.13.38,0,.58,0h0v1.42h-1.41Z"/><path d="M334.7,144.69c0,.3,0,.61,0,.92,0,.09,0,.14-.12.13s-.45.07-.56,0,0-.35,0-.53v-1.43c0-.1,0-.14.12-.13s.44-.08.56,0,0,.34,0,.52Z"/><path d="M333.28,150.69v-.6c0-.09,0-.11-.12-.11s-.31,0-.47,0-.12,0-.12-.11,0-.4,0-.6h1.29c.1,0,.12,0,.12.12v1.3h-.71Z"/><path d="M323.37,145.73v.2c0,.16-.07.39,0,.48s.31,0,.48,0H324c.11,0,.14,0,.13.14a3.53,3.53,0,0,0,0,.46c0,.09,0,.11-.12.11h-1.18c-.09,0-.12,0-.12-.11,0-.4,0-.79,0-1.19,0-.1,0-.12.13-.12h.58Z"/><path d="M331.15,138.65h-.6c-.08,0-.11,0-.1-.1v-.51c0-.08,0-.11.1-.1h1.22c.09,0,.1.05.1.12a3.84,3.84,0,0,0,0,.48c0,.09,0,.12-.12.12Z"/><path d="M336.11,149.28h1.3c.1,0,.12,0,.12.12a3.84,3.84,0,0,0,0,.48c0,.09,0,.12-.12.11h-1.3v-.71Z"/><path d="M329.74,152.1v.58c0,.1,0,.14-.12.14h-1.18c-.09,0-.12,0-.12-.12a3.53,3.53,0,0,0,0-.46c0-.11,0-.14.14-.14h1.28Z"/><path d="M329,140.78a5.66,5.66,0,0,0,0,.58c0,.11,0,.13-.14.13a3.84,3.84,0,0,0-.48,0c-.07,0-.1,0-.1-.1a4.34,4.34,0,0,0,0-.51c0-.1,0-.1.12-.1H329Z"/><path d="M329,142.56c0,.34,0,.34-.34.34s-.36,0-.36-.36,0-.35.34-.35S329,142.19,329,142.56Z"/><path d="M330.45,142.9h-.6c-.07,0-.12,0-.11-.1a4.34,4.34,0,0,0,0-.51c0-.09,0-.1.11-.1h.6v.71Z"/><path d="M323.37,144c0,.35,0,.35-.34.35s-.37,0-.37-.36,0-.35.35-.35S323.37,143.61,323.37,144Z"/><path d="M332.57,146.79c0-.35,0-.35.36-.35s.35,0,.35.36,0,.35-.35.35S332.57,147.15,332.57,146.79Z"/><path d="M335.4,146.44v.72h-.58c-.09,0-.13,0-.13-.11a4,4,0,0,0,0-.49c0-.09,0-.11.12-.11h.59Z"/><path d="M330.45,152.11H331c.11,0,.14,0,.13.14a3.84,3.84,0,0,0,0,.48c0,.07,0,.1-.1.09h-.51c-.09,0-.1,0-.1-.12v-.6Z"/><path class="cls-17" d="M336.11,149.27V150h-1.3c-.09,0-.12,0-.12.12s0,.3,0,.45,0,.15-.13.14H334v-1.3c0-.09,0-.12-.12-.12h-1.3c0-.2,0-.39,0-.59s0-.13.12-.13h1.89c.09,0,.12,0,.12.12s0,.31,0,.46,0,.14.14.14Z"/><path class="cls-17" d="M324.78,145.74v-1.42h1.29c.11,0,.14,0,.13.13s0,.29,0,.44,0,.15.13.14h.58v.72h-2.13Z"/><path class="cls-17" d="M330.44,148.56c0,.44,0,.89,0,1.34,0,.07,0,.09-.09.08h0c-.19,0-.44.07-.56,0s0-.35,0-.54,0-.16-.14-.14h0c-.18,0-.44.08-.52,0s0-.37,0-.57.05-.11.13-.11Z"/><path class="cls-17" d="M326.91,145.74h.58c.11,0,.14,0,.13.14a3.68,3.68,0,0,0,0,.47c0,.08,0,.11-.1.1H327c-.09,0-.1,0-.1-.11v-.6Z"/><path class="cls-17" d="M329,145.73a5.61,5.61,0,0,0,0,.58c0,.12,0,.14-.14.13h-.48c-.07,0-.1,0-.1-.1a4.34,4.34,0,0,0,0-.51c0-.09,0-.1.12-.1H329Z"/><path class="cls-17" d="M330.45,147.86c-.19,0-.39,0-.58,0s-.14,0-.13-.12,0-.32,0-.48,0-.12.1-.11h.61v.71Z"/><path class="cls-17" d="M330.45,147.86H331c.09,0,.14,0,.13.12a3.69,3.69,0,0,0,0,.47c0,.08,0,.12-.1.12h-.62c0-.23,0-.47,0-.7Z"/><path class="cls-17" d="M326.91,145c0-.19,0-.39,0-.58s0-.14.13-.13h.48c.08,0,.1,0,.1.1a4.34,4.34,0,0,0,0,.51c0,.09,0,.1-.11.1h-.6Z"/><path class="cls-17" d="M325.12,142.19h-1.61c-.11,0-.14,0-.14-.15V138.8c0-.12,0-.15.14-.15h3.26c.11,0,.14,0,.14.15v3.25c0,.12,0,.15-.14.15Zm-1-1.78v1c0,.1,0,.13.12.13.63,0,1.25,0,1.88,0,.1,0,.12,0,.12-.13v-1.87c0-.1,0-.13-.12-.13H324.2c-.1,0-.13,0-.12.13Z"/><path class="cls-17" d="M333.28,140.41V138.8c0-.12,0-.15.14-.15h3.26c.11,0,.14,0,.14.15v3.25c0,.12,0,.15-.14.15h-3.26c-.11,0-.14,0-.14-.15Zm1.75,1.08c.32,0,.64,0,1,0,.1,0,.13,0,.12-.13v-1.87c0-.1,0-.13-.12-.13h-1.88c-.1,0-.12,0-.12.13v1.87c0,.1,0,.13.12.13C334.42,141.48,334.73,141.49,335,141.49Z"/><path class="cls-17" d="M323.37,150.34v-1.63c0-.12,0-.15.14-.15h3.26c.11,0,.14,0,.14.15V152c0,.12,0,.15-.14.15-1.09,0-2.17,0-3.26,0-.11,0-.14,0-.14-.15Zm.71,0v1c0,.1,0,.13.12.13h1.88c.1,0,.12,0,.12-.13V149.4c0-.1,0-.13-.12-.13H324.2c-.1,0-.13,0-.12.13Z"/><path class="cls-17" d="M330.45,141.49c0-.19,0-.39,0-.58s0-.14.13-.13h.48c.08,0,.1,0,.1.1a4.34,4.34,0,0,0,0,.51c0,.09,0,.1-.11.1h-.6Z"/><path class="cls-17" d="M330.45,142.9v-.71H331c.08,0,.12,0,.12.1a4.34,4.34,0,0,0,0,.51c0,.1,0,.1-.12.1Z"/><path class="cls-17" d="M332.58,144.32c0,.2,0,.4,0,.61s0,.1-.09.1h-.62c0-.21,0-.41,0-.61s0-.11.1-.1Z"/><path class="cls-17" d="M333.28,150.69H334v.71c-.2,0-.41,0-.61,0s-.1,0-.1-.1Z"/><path class="cls-17" d="M334.7,152.11c-.21,0-.41,0-.61,0s-.1,0-.1-.1v-.62h.61c.08,0,.1,0,.1.09S334.7,151.9,334.7,152.11Z"/><path d="M324.08,140.41v-.92c0-.1,0-.13.12-.13h1.88c.1,0,.12,0,.12.13v1.87c0,.1,0,.13-.12.13-.63,0-1.25,0-1.88,0-.1,0-.13,0-.12-.13Z"/><path d="M335,141.49c-.3,0-.61,0-.92,0-.1,0-.12,0-.12-.13v-1.87c0-.1,0-.13.12-.13H336c.1,0,.13,0,.12.13v1.87c0,.1,0,.13-.12.13C335.67,141.48,335.35,141.49,335,141.49Z"/><path d="M324.08,150.32v-.92c0-.1,0-.13.12-.13h1.88c.1,0,.12,0,.12.13v1.87c0,.1,0,.13-.12.13H324.2c-.1,0-.13,0-.12-.13Z"/><path class="cls-18" d="M416.18,134.73h20.56v20.56H416.18Zm3.53,10.65h1.43v1.42h3.54v3.54h1.41v1.41h-1.41v.7h1.41v-.7h.71v.7h.69v-.7h-.7v-1.42h1.43v-1.41h.7v.71h.71v.71h-.72v.71h-.69v.71h1.41v.69H431v-.7h2.82v-1.42h-1.4v-.7h1.4v-.71h-1.4v-2.11h-.72v-.73h.72v-.69h.7v1.39h.69v-2.11h-.68V144h.68v-.69h-2.1v.7h.69v.71h-.7v1.41h-.7v.71h.7v.69H428.2v-.69h-1.39v-.71h.68v-.71h-2.11v-.72h1.41V144h-.71v-.69h-4.94v.7h-.72v.71h-.7v.7H419v1.4h1.39v-.7h-.7Zm7.09-3.54h-.7v.71h.7v.71h.71v1.41h.7v.7h1.41V144h-.7v-.72h-.72v-3.54h-1.41V139h-.71v-.7h-.7v-.69h-.7v2.11h.7v.71h-.7v.69h.7v-.7h.71v.72h.7ZM419,137.6v4.93H424V137.6Zm14.84,4.94v-4.93h-4.93v4.93ZM424,152.45v-4.93H419v4.93Zm7.08-7.08v-2.1h-.68v2.1Zm-2.83-7.77h-1.39v.69h1.39Zm-2.83,4.25h-.69v.69h.69ZM419,143.26V144h.68v-.69Zm9.91,2.84v.68h.69v-.68Z"/><path d="M431.74,146.81h.72v2.11H431v-.7h-2.12v.7h-.7v1.41h-1.43v1.42h-.7v-1.41h-1.41V146.8h-3.54v-1.42h2.12v.7H424v-.7h-.7v-.71h.7V144h-.69v.7h-.72V144h-1.4v-.7h4.94V144h.71v.7h-1.41v.72h-.7v.7h.7v-.7h2.11v.71h-.68v.71h-.71v.7h.7v.71h-1.4v.71h.7v.7h.7V148.2h.7v-.69h-.7v-.71h1.4v.69h3.55v-.69Z"/><path d="M419,137.6H424v4.93H419Zm.7,4.23h3.52v-3.52h-3.52Z"/><path d="M433.86,142.54h-4.93v-4.93h4.93Zm-4.22-4.23v3.52h3.52v-3.52Z"/><path d="M424,152.45H419v-4.93H424Zm-4.22-4.23v3.52h3.52v-3.52Z"/><path d="M425.38,140.43v-.71h-.7v-2.11h.7v.69h.7v.7h.71v.71h1.41v3.54h.72V144h-.71v.71h-.7v-1.41h-.71v-.71h.69v-.71h-.69v-.71h.7v-.69h-.69v.7h-.71v-.72h-.71Z"/><path d="M432.46,149.63v.7h1.4v1.42h-2.81V151h-.71v-.72h.71v-.71Z"/><path d="M431.75,146.09v-1.41h.7V144h-.69v-.7h2.1V144h-.68v.71h.68v2.11h-.69v-1.39h-.7v.69h-.72Z"/><path d="M431,151.75v.7h-1.41v-.69h-1.41v-.71h.69v-.71h.71v.72h.71v.71H431Z"/><path d="M428.92,144h.7v1.4h-1.41v-.7h.71V144Z"/><path d="M419.72,145.38v-.7h.7V144h.71v1.42h-1.41Z"/><path d="M431,145.37h-.68v-2.1H431Z"/><path d="M429.63,150.34v-.71h-.71v-.71h1.41v1.42h-.7Z"/><path d="M419.71,145.38v.7h.7v.7H419v-1.4h.69Z"/><path d="M428.2,137.6v.69h-1.39v-.69Z"/><path d="M432.46,148.92h1.4v.71h-1.4v-.71Z"/><path d="M426.09,151.75v.7h-1.41v-.7Z"/><path d="M425.38,140.42v.7h-.7v-.69h.7Z"/><path d="M425.37,141.85v.69h-.69v-.69Z"/><path d="M426.8,142.55h-.7v-.71h.69v.71Z"/><path d="M419,143.26h.68V144H419Z"/><path d="M428.93,146.1h.69v.68h-.69Z"/><path d="M431.75,146.08c0,.25,0,.49,0,.73h-.69v-.71h.7Z"/><path d="M426.79,151.75h.7v.7h-.69v-.7Z"/><path class="cls-18" d="M432.46,148.92v.71h-1.41v.71h-.72v-1.42h-1.41v-.7H431v.7Z"/><path class="cls-18" d="M421.13,145.38V144h1.41v.72h.71v.71h-2.12Z"/><path class="cls-18" d="M426.79,148.2v1.42h-.7v-.7h-.7v-.71h1.4Z"/><path class="cls-18" d="M423.25,145.38h.7v.7h-.69v-.7Z"/><path class="cls-18" d="M425.38,145.38v.7h-.7v-.7Z"/><path class="cls-18" d="M426.8,147.5h-.7v-.7h.7c0,.23,0,.47,0,.71Z"/><path class="cls-18" d="M426.79,147.51h.7v.69h-.7c0-.24,0-.47,0-.71Z"/><path class="cls-18" d="M423.26,144.68V144H424v.69h-.69Z"/><path class="cls-18" d="M419.72,141.83v-3.52h3.52v3.52Zm.72-2.81v2.1h2.1V139Z"/><path class="cls-18" d="M429.64,138.31h3.52v3.52h-3.52Zm.7,2.81h2.11V139h-2.11Z"/><path class="cls-18" d="M419.73,148.22h3.52v3.52h-3.52Zm.71.71V151h2.1v-2.1Z"/><path class="cls-18" d="M426.8,141.14v-.7h.69v.69h-.69Z"/><path class="cls-18" d="M426.79,142.55v-.71h.7v.71Z"/><path class="cls-18" d="M428.92,144v.71h-.71V144Z"/><path class="cls-18" d="M429.62,150.33h.72v.72h-.72Z"/><path class="cls-18" d="M431.05,151.75h-.72V151h.72Z"/><path d="M420.44,139h2.1v2.1h-2.1Z"/><path d="M430.34,141.12V139h2.11v2.1Z"/><path d="M420.44,148.93h2.1V151h-2.1Z"/><path class="cls-18" d="M219.59,222.33h20.57v20.56H219.59ZM223.13,233h1.42v1.43h3.54v3.53h1.41v1.42h-1.4v.69h1.4v-.7h.71v.7h.69v-.69h-.69v-1.43h1.42v-1.41h.71v.72h.7v.7h-.72v.71h-.68v.71h1.41v.69h1.4v-.7h2.83v-1.42h-1.41v-.7h1.41v-.7h-1.41v-2.12h-.71v-.72h.72V233h.71v1.4h.69v-2.12h-.69v-.7h.69v-.7h-2.1v.71h.68v.7h-.69v1.41h-.7v.71h.69v.69h-3.54v-.69h-1.4v-.72h.68V233h-2.1v-.72h1.4v-.7h-.7v-.7h-4.95v.7h-.72v.71h-.7V233h-.7v1.4h1.4v-.7h-.7Zm7.08-3.53h-.7v.7h.7v.72h.71v1.4h.71v.7H233v-1.4h-.7v-.72h-.71v-3.53H230.2v-.71h-.7v-.71h-.71v-.69h-.7v2.11h.71V228h-.7v.69h.69V228h.72v.71h.7Zm-7.78-4.24v4.93h4.94v-4.93Zm14.85,4.93v-4.93h-4.94v4.93Zm-9.91,9.92v-4.94h-4.94v4.94Zm7.07-7.08v-2.11h-.68V233Zm-2.82-7.77h-1.4v.68h1.4Zm-2.84,4.24h-.68v.69h.68Zm-6.34,1.41v.7h.68v-.7Zm9.9,2.84v.69H233v-.69Z"/><path d="M235.16,234.41h.71v2.12h-1.42v-.69h-2.12v.7h-.7v1.41h-1.42v1.43h-.71v-1.42h-1.41v-3.53h-3.54V233h2.12v.7h.69V233h-.69v-.72h.7v-.69h-.7v.7H226v-.71h-1.4v-.7h4.95v.7h.7v.7h-1.4V233h-.7v.69h.69V233h2.11v.71h-.68v.72h-.71v.69h.7v.71h-1.4v.72h.71v.69h.69v-1.41h.7v-.7h-.69v-.71h1.41v.69h3.54v-.69Z"/><path d="M222.43,225.21h4.94v4.93h-4.94Zm.71,4.22h3.52v-3.52h-3.52Z"/><path d="M237.28,230.14h-4.94v-4.93h4.94Zm-4.23-4.23v3.52h3.52v-3.52Z"/><path d="M227.37,240.06h-4.94v-4.94h4.94Zm-4.23-4.24v3.52h3.52v-3.52Z"/><path d="M228.8,228v-.71h-.71v-2.11h.7v.69h.71v.71h.7v.71h1.42v3.53h.71v.72h-.71v.71h-.7v-1.4h-.71v-.72h.69v-.71h-.69v-.72h.7V228h-.7v.7h-.7V228h-.71Z"/><path d="M235.87,237.23v.7h1.41v1.42h-2.82v-.72h-.71v-.71h.71v-.71Z"/><path d="M235.17,233.69v-1.41h.69v-.7h-.68v-.71h2.1v.7h-.69v.7h.69v2.12h-.69V233h-.71v.7h-.71Z"/><path d="M234.45,239.35v.7h-1.4v-.69h-1.41v-.71h.68v-.71H233v.71h.71v.72h.7Z"/><path d="M232.33,231.57h.7V233h-1.4v-.7h.71v-.71Z"/><path d="M223.13,233v-.71h.7v-.71h.71V233h-1.41Z"/><path d="M234.44,233h-.68v-2.11h.68Z"/><path d="M233,237.94v-.7h-.7v-.72h1.41v1.41H233Z"/><path d="M223.13,233v.71h.7v.7h-1.4V233h.7Z"/><path d="M231.62,225.21v.68h-1.4v-.68Z"/><path d="M235.87,236.53h1.41v.7h-1.41v-.71Z"/><path d="M229.5,239.35v.7h-1.4v-.69h1.4Z"/><path d="M228.79,228v.69h-.69V228h.69Z"/><path d="M228.78,229.45v.69h-.68v-.69Z"/><path d="M230.21,230.15h-.7v-.7h.7v.71Z"/><path d="M222.44,230.86h.68v.7h-.68Z"/><path d="M232.34,233.7H233v.69h-.69Z"/><path d="M235.16,233.69v.72h-.69v-.71h.69Z"/><path d="M230.21,239.36h.69v.69h-.69v-.7Z"/><path class="cls-18" d="M235.87,236.52v.71h-1.41v.71h-.71v-1.41h-1.42v-.7h2.12v.69Z"/><path class="cls-18" d="M224.54,233v-1.42H226v.71h.72V233h-2.13Z"/><path class="cls-18" d="M230.2,235.81v1.41h-.69v-.69h-.71v-.72Z"/><path class="cls-18" d="M226.67,233h.69v.69h-.69V233Z"/><path class="cls-18" d="M228.79,233v.7h-.69V233h.69Z"/><path class="cls-18" d="M230.21,235.1h-.7v-.69h.7v.71Z"/><path class="cls-18" d="M230.21,235.11h.69v.7h-.7c0-.23,0-.47,0-.71Z"/><path class="cls-18" d="M226.67,232.28v-.7h.7v.69h-.7Z"/><path class="cls-18" d="M223.14,229.43v-3.52h3.52v3.52Zm.71-2.81v2.1H226v-2.1Z"/><path class="cls-18" d="M233.05,225.91h3.52v3.52h-3.52Zm.71,2.81h2.1v-2.1h-2.1Z"/><path class="cls-18" d="M223.14,235.82h3.52v3.52h-3.52Zm.71.71v2.1H226v-2.1Z"/><path class="cls-18" d="M230.21,228.74V228h.7v.69h-.7Z"/><path class="cls-18" d="M230.21,230.15v-.71h.69v.71Z"/><path class="cls-18" d="M232.34,231.57v.71h-.72v-.71Z"/><path class="cls-18" d="M233,237.94h.71v.71H233Z"/><path class="cls-18" d="M234.46,239.36h-.71v-.72h.71Z"/><path d="M223.85,226.62H226v2.1h-2.1Z"/><path d="M233.76,228.72v-2.1h2.1v2.1Z"/><path d="M223.85,236.53H226v2.1h-2.1Z"/><path class="cls-18" d="M320.54,223H341.1V243.6H320.54Zm3.54,10.65h1.42v1.43H329v3.53h1.41v1.42h-1.4v.69h1.4v-.7h.71v.7h.69v-.69h-.7v-1.43h1.43v-1.41h.7V238H334v.7h-.72v.71h-.69v.71H334v.69h1.4v-.7h2.83v-1.42h-1.41v-.7h1.4v-.71h-1.4v-2.11h-.72v-.72h.72v-.7h.7v1.39h.7V233h-.69v-.71h.68v-.69h-2.1v.7h.69V233h-.69v1.41h-.7v.71h.69v.69h-3.54v-.69h-1.4v-.72h.68v-.71h-2.11V233h1.41v-.71h-.71v-.69H325.5v.7h-.72V233h-.7v.7h-.7v1.4h1.4v-.7h-.7Zm7.08-3.54h-.7v.71h.7v.71h.71V233h.71v.7H334v-1.4h-.7v-.72h-.71V228h-1.42v-.71h-.71v-.7h-.7v-.69H329V228h.7v.71h-.69v.69h.69v-.7h.72v.72h.69Zm-7.78-4.24v4.94h4.94v-4.94Zm14.84,4.94v-4.93h-4.93v4.93Zm-9.91,9.91v-4.93h-4.93v4.93Zm7.08-7.07v-2.11h-.68v2.11Zm-2.83-7.78h-1.39v.69h1.39Zm-2.83,4.25H329v.69h.69Zm-6.35,1.41v.69h.68v-.69Zm9.91,2.84v.68H334v-.68Z"/><path d="M336.1,235.12h.72v2.11H335.4v-.69h-2.12v.69h-.7v1.41h-1.43v1.43h-.7v-1.42H329v-3.53H325.5v-1.43h2.12v.7h.69v-.7h-.7V233h.7v-.69h-.69v.7h-.72v-.72h-1.4v-.7h4.94v.69h.71V233h-1.41v.71h-.69v.7h.69v-.7h2.11v.71h-.68v.72h-.71v.69h.7v.71h-1.4v.71h.71v.7h.69v-1.41h.7v-.7h-.7v-.71h1.41v.69h3.54v-.69Z"/><path d="M323.38,225.91h4.94v4.94h-4.94Zm.71,4.23h3.51v-3.52h-3.51Z"/><path d="M338.22,230.85h-4.93v-4.93h4.93ZM334,226.62v3.52h3.52v-3.52Z"/><path d="M328.31,240.76h-4.93v-4.93h4.93Zm-4.22-4.23v3.52h3.52v-3.52Z"/><path d="M329.74,228.74V228H329v-2.11h.7v.69h.7v.7h.71V228h1.42v3.54h.71v.72h-.71V233h-.7v-1.41h-.71v-.71h.69v-.71h-.69v-.71h.7v-.69h-.69v.7h-.7v-.72h-.72Z"/><path d="M336.82,237.94v.7h1.41v1.42h-2.82v-.72h-.71v-.72h.71v-.71Z"/><path d="M336.12,234.4V233h.69v-.71h-.69v-.7h2.1v.69h-.68V233h.69v2.11h-.7V233.7h-.7v.7h-.71Z"/><path d="M335.4,240.06v.7H334v-.69h-1.42v-.71h.69v-.71H334v.72h.7v.72h.71Z"/><path d="M333.28,232.28h.7v1.4h-1.4V233h.7v-.72Z"/><path d="M324.08,233.69V233h.7v-.71h.71v1.42h-1.41Z"/><path d="M335.39,233.69h-.68v-2.11h.68Z"/><path d="M334,238.65V238h-.71v-.72h1.41v1.42H334Z"/><path d="M324.08,233.69v.7h.7v.7h-1.4v-1.4Z"/><path d="M332.56,225.91v.69h-1.39v-.69Z"/><path d="M336.82,237.23h1.4v.71h-1.4v-.71Z"/><path d="M330.45,240.06v.7h-1.4v-.69h1.4Z"/><path d="M329.74,228.73v.7h-.69v-.69h.69Z"/><path d="M329.73,230.16v.69H329v-.69Z"/><path d="M331.16,230.86h-.7v-.71h.69v.71Z"/><path d="M323.38,231.57h.68v.69h-.68Z"/><path d="M333.29,234.41H334v.68h-.69Z"/><path d="M336.11,234.4c0,.24,0,.48,0,.72h-.68v-.71h.69Z"/><path d="M331.15,240.07h.7v.69h-.69v-.7Z"/><path class="cls-18" d="M336.82,237.23v.71h-1.41v.71h-.72v-1.42h-1.41v-.69h2.12v.69Z"/><path class="cls-18" d="M325.49,233.69v-1.42h1.41V233h.71v.71h-2.12Z"/><path class="cls-18" d="M331.15,236.52v1.41h-.69v-.7h-.71v-.71Z"/><path class="cls-18" d="M327.61,233.69h.7v.7h-.69v-.7Z"/><path class="cls-18" d="M329.74,233.69v.7h-.69v-.7Z"/><path class="cls-18" d="M331.16,235.81h-.7v-.69h.7c0,.24,0,.47,0,.71Z"/><path class="cls-18" d="M331.15,235.82h.7v.7h-.7c0-.24,0-.47,0-.71Z"/><path class="cls-18" d="M327.62,233v-.7h.69V233h-.69Z"/><path class="cls-18" d="M324.09,230.14v-3.52h3.51v3.52Zm.71-2.81v2.1h2.1v-2.1Z"/><path class="cls-18" d="M334,226.62h3.52v3.52H334Zm.7,2.81h2.11v-2.1H334.7Z"/><path class="cls-18" d="M324.09,236.53h3.52v3.52h-3.52Zm.71.71v2.1h2.1v-2.1Z"/><path class="cls-18" d="M331.16,229.45v-.7h.69v.69h-.69Z"/><path class="cls-18" d="M331.15,230.86v-.71h.7v.71Z"/><path class="cls-18" d="M333.28,232.27V233h-.71v-.72Z"/><path class="cls-18" d="M334,238.64h.71v.72H334Z"/><path class="cls-18" d="M335.41,240.07h-.72v-.72h.72Z"/><path d="M324.8,227.33h2.1v2.1h-2.1Z"/><path d="M334.7,229.43v-2.1h2.11v2.1Z"/><path d="M324.8,237.24h2.1v2.1h-2.1Z"/><path class="cls-18" d="M416.89,222.68h20.56v20.57H416.89Zm3.53,10.65h1.42v1.42h3.55v3.54h1.41v1.41h-1.41v.69h1.4v-.69h.72v.7h.69v-.7h-.7v-1.42h1.43v-1.42h.7v.72h.71v.71h-.72V239h-.69v.71h1.41v.69h1.41v-.7h2.82v-1.42h-1.41v-.71h1.41v-.7h-1.41v-2.12h-.71V234h.72v-.69h.7v1.39h.69v-2.12h-.69v-.7h.69v-.7h-2.1v.71h.69v.7h-.7v1.42h-.7v.71h.7v.69h-3.55v-.69h-1.4V234h.69v-.71h-2.11v-.72h1.4v-.7h-.7v-.69h-5v.69h-.71v.72h-.7v.7h-.7v1.4h1.39V234h-.7Zm7.09-3.53h-.7v.7h.7v.72h.71v1.41h.7v.7h1.4v-1.41h-.7v-.71h-.71v-3.54h-1.42V227h-.7v-.71h-.7v-.69h-.7v2.12h.7v.7h-.7v.7h.7v-.7h.71v.71h.7Zm-7.78-4.24v4.93h4.93v-4.93Zm14.84,4.94v-4.93h-4.93v4.93Zm-9.91,9.91v-4.93h-4.93v4.93Zm7.08-7.08v-2.11h-.69v2.11Zm-2.83-7.77h-1.4v.69h1.4Zm-2.83,4.25h-.69v.68h.69Zm-6.35,1.41v.69h.68v-.69Zm9.91,2.83v.69h.69v-.69Z"/><path d="M432.45,234.76h.71v2.12h-1.41v-.7h-2.13v.7h-.69v1.42H427.5v1.42h-.7V238.3h-1.41v-3.54h-3.55v-1.42H424V234h.69v-.69H424v-.71h.7v-.69H424v.69h-.72v-.71h-1.41v-.69h5v.69h.7v.7h-1.4v.72h-.7V234h.7v-.7h2.11V234h-.69v.72h-.7v.7h.7v.71h-1.4v.71h.7v.7h.69v-1.42h.71v-.7h-.7v-.7h1.4v.69h3.55v-.69Z"/><path d="M419.73,225.56h4.93v4.93h-4.93Zm.7,4.23H424v-3.52h-3.52Z"/><path d="M434.57,230.5h-4.93v-4.93h4.93Zm-4.22-4.23v3.51h3.52v-3.51Z"/><path d="M424.66,240.41h-4.93v-4.93h4.93Zm-4.22-4.23v3.51H424v-3.51Z"/><path d="M426.09,228.38v-.7h-.7v-2.12h.7v.69h.7V227h.7v.71h1.42v3.54h.71v.71h-.7v.71h-.7v-1.41h-.71v-.72h.69v-.71h-.69v-.71h.7v-.69h-.69v.69h-.71v-.71Z"/><path d="M433.16,237.58v.71h1.41v1.42h-2.82V239h-.7v-.71h.71v-.71h1.4Z"/><path d="M432.46,234.05v-1.42h.7v-.7h-.69v-.71h2.1v.7h-.69v.7h.69v2.12h-.69v-1.39h-.7V234h-.72Z"/><path d="M431.75,239.71v.7h-1.41v-.69h-1.41V239h.69v-.71h.71V239H431v.71Z"/><path d="M429.62,231.92h.7v1.41h-1.4v-.7h.71v-.71Z"/><path d="M420.43,233.34v-.7h.7v-.72h.71v1.42h-1.41Z"/><path d="M431.74,233.33h-.69v-2.11h.69Z"/><path d="M430.34,238.3v-.71h-.71v-.72H431v1.42h-.7Z"/><path d="M420.42,233.33V234h.7v.7h-1.39v-1.4h.69Z"/><path d="M428.91,225.56v.69h-1.4v-.69Z"/><path d="M433.16,236.88h1.41v.7h-1.4v-.71Z"/><path d="M426.79,239.71v.69h-1.4v-.69h1.4Z"/><path d="M426.09,228.38v.7h-.7v-.7Z"/><path d="M426.08,229.81v.68h-.69v-.68Z"/><path d="M427.51,230.5h-.7v-.7h.69v.71Z"/><path d="M419.73,231.22h.68v.69h-.68Z"/><path d="M429.64,234.05h.69v.69h-.69Z"/><path d="M432.46,234c0,.24,0,.48,0,.72h-.69v-.71h.7Z"/><path d="M427.5,239.71h.7v.7h-.69v-.7Z"/><path class="cls-18" d="M433.17,236.88v.71h-1.41v.71H431v-1.42h-1.42v-.7h2.13v.7Z"/><path class="cls-18" d="M421.84,233.34v-1.42h1.41v.71H424v.71h-2.12Z"/><path class="cls-18" d="M427.49,236.16v1.42h-.69v-.7h-.7v-.71h1.39Z"/><path class="cls-18" d="M424,233.34h.7V234H424v-.69Z"/><path class="cls-18" d="M426.09,233.33v.7h-.7v-.69h.7Z"/><path class="cls-18" d="M427.51,235.46h-.7v-.7h.7c0,.23,0,.47,0,.7Z"/><path class="cls-18" d="M427.5,235.46h.7v.7h-.7c0-.24,0-.48,0-.71Z"/><path class="cls-18" d="M424,232.63v-.69h.69v.69H424Z"/><path class="cls-18" d="M420.43,229.79v-3.52H424v3.52Zm.72-2.82v2.11h2.1V227Z"/><path class="cls-18" d="M430.35,226.27h3.52v3.51h-3.52Zm.7,2.81h2.1V227h-2.1Z"/><path class="cls-18" d="M420.44,236.18H424v3.51h-3.51Zm.71.71V239h2.1v-2.1Z"/><path class="cls-18" d="M427.51,229.09v-.69h.69v.69h-.69Z"/><path class="cls-18" d="M427.5,230.51v-.71h.7v.71Z"/><path class="cls-18" d="M429.63,231.92v.71h-.71v-.71Z"/><path class="cls-18" d="M430.33,238.29h.72V239h-.72Z"/><path class="cls-18" d="M431.75,239.71H431V239h.71Z"/><path d="M421.15,227h2.1v2.11h-2.1Z"/><path d="M431.05,229.08V227h2.1v2.1Z"/><path d="M421.15,236.89h2.1V239h-2.1Z"/><path class="cls-18" d="M220.3,308.8h20.56v20.57H220.3Zm3.54,10.65h1.42v1.43h3.54v3.53h1.41v1.42H228.8v.69h1.41v-.7h.71v.7h.69v-.69h-.7v-1.42h1.43V323h.7v.72h.71v.7H233v.72h-.69v.71h1.42v.68h1.4v-.7H238v-1.41h-1.41v-.71H238V323h-1.4v-2.12h-.72v-.72h.72v-.69h.7v1.39h.7v-2.12h-.69V318H238v-.7h-2.1v.71h.69v.7h-.69v1.42h-.7v.71h.69v.68h-3.54v-.69h-1.4v-.72h.68v-.71H229.5v-.72h1.41V318h-.71v-.7h-4.94v.7h-.72v.71h-.7v.71h-.7v1.4h1.4v-.7h-.7Zm7.08-3.53h-.7v.7h.7v.72h.71v1.4h.71v.7h1.4V318H233v-.72h-.71v-3.53h-1.42v-.71h-.71v-.71h-.7v-.69h-.7v2.12h.7v.7h-.7v.69h.7v-.69h.72v.71h.69Zm-7.78-4.24v4.93h4.94v-4.93ZM238,316.62v-4.94h-4.93v4.94Zm-9.91,9.91v-4.94h-4.93v4.94Zm7.08-7.08v-2.11h-.68v2.11Zm-2.83-7.77h-1.39v.68h1.39Zm-2.83,4.25h-.69v.68h.69Zm-6.35,1.41V318h.68v-.69Zm9.91,2.83v.69h.69v-.69Z"/><path d="M235.86,320.88h.72V323h-1.42v-.69H233v.7h-.7v1.42h-1.43v1.42h-.7v-1.42H228.8v-3.53h-3.54v-1.43h2.12v.7h.69v-.69h-.7v-.71h.7v-.7h-.69v.7h-.72V318h-1.4v-.7h4.94v.7h.71v.7H229.5v.72h-.7v.69h.7v-.7h2.11v.71h-.68v.72h-.71v.7h.7v.7h-1.4V323h.71v.69h.69v-1.41h.7v-.7h-.7v-.71h1.41v.69h3.54v-.68Z"/><path d="M223.14,311.68h4.94v4.93h-4.94Zm.71,4.22h3.51v-3.51h-3.51Z"/><path d="M238,316.62h-4.93v-4.94H238Zm-4.22-4.24v3.52h3.52v-3.52Z"/><path d="M228.07,326.53h-4.93v-4.94h4.93Zm-4.22-4.24v3.52h3.52v-3.52Z"/><path d="M229.5,314.5v-.7h-.7v-2.12h.7v.69h.7v.71h.71v.71h1.42v3.53H233V318h-.71v.71h-.7v-1.4h-.71v-.72h.69v-.72h-.69v-.71h.7v-.7h-.69v.7h-.7v-.71Z"/><path d="M236.58,323.7v.71H238v1.41h-2.82v-.71h-.71v-.71h.71v-.7h1.41Z"/><path d="M235.88,320.17v-1.42h.69v-.7h-.69v-.71H238v.7h-.68v.7H238v2.12h-.7v-1.39h-.7v.69h-.71Z"/><path d="M235.16,325.82v.7h-1.4v-.68h-1.42v-.71H233v-.72h.72v.71h.7v.71h.71Z"/><path d="M233,318h.7v1.4h-1.4v-.7h.7V318Z"/><path d="M223.84,319.46v-.71h.7V318h.71v1.42h-1.41Z"/><path d="M235.15,319.45h-.68v-2.11h.68Z"/><path d="M233.75,324.41v-.7H233V323h1.41v1.41h-.7Z"/><path d="M223.84,319.45v.71h.7v.7h-1.4v-1.4h.7Z"/><path d="M232.32,311.68v.68h-1.39v-.68Z"/><path d="M236.58,323H238v.7h-1.4V323Z"/><path d="M230.21,325.82v.7H228.8v-.69h1.41Z"/><path d="M229.5,314.5v.69h-.7v-.69Z"/><path d="M229.49,315.93v.68h-.69v-.68Z"/><path d="M230.92,316.62h-.7v-.7h.69v.72Z"/><path d="M223.14,317.34h.68V318h-.68Z"/><path d="M233.05,320.17h.69v.69h-.69Z"/><path d="M235.87,320.16c0,.24,0,.48,0,.72h-.68v-.71h.69Z"/><path d="M230.91,325.83h.7v.69h-.69v-.7Z"/><path class="cls-18" d="M236.58,323v.72h-1.41v.7h-.72V323H233v-.7h2.12V323Z"/><path class="cls-18" d="M225.25,319.46V318h1.41v.71h.71v.71h-2.12Z"/><path class="cls-18" d="M230.91,322.28v1.41h-.69V323h-.71v-.72Z"/><path class="cls-18" d="M227.37,319.46h.7v.69h-.69v-.7Z"/><path class="cls-18" d="M229.5,319.45v.7h-.7v-.69h.7Z"/><path class="cls-18" d="M230.92,321.58h-.7v-.7h.7c0,.24,0,.48,0,.71Z"/><path class="cls-18" d="M230.91,321.58h.7v.7h-.7c0-.23,0-.47,0-.7Z"/><path class="cls-18" d="M227.38,318.75v-.7h.69v.7h-.69Z"/><path class="cls-18" d="M223.85,315.9v-3.51h3.51v3.51Zm.71-2.81v2.1h2.1v-2.1Z"/><path class="cls-18" d="M233.76,312.38h3.52v3.52h-3.52Zm.7,2.82h2.11v-2.11h-2.11Z"/><path class="cls-18" d="M223.85,322.29h3.52v3.52h-3.52Zm.71.71v2.1h2.1V323Z"/><path class="cls-18" d="M230.92,315.21v-.7h.69v.7h-.69Z"/><path class="cls-18" d="M230.91,316.63v-.72h.7v.72Z"/><path class="cls-18" d="M233,318v.71h-.71V318Z"/><path class="cls-18" d="M233.75,324.41h.71v.71h-.71Z"/><path class="cls-18" d="M235.17,325.83h-.72v-.71h.72Z"/><path d="M224.56,313.09h2.1v2.1h-2.1Z"/><path d="M234.46,315.2v-2.11h2.11v2.11Z"/><path d="M224.56,323h2.1v2.1h-2.1Z"/><path class="cls-18" d="M321.25,309.51h20.56v20.56H321.25Zm3.53,10.65h1.42v1.43h3.55v3.53h1.41v1.42h-1.41v.69h1.4v-.7h.72v.7h.69v-.69h-.7v-1.43h1.43V323.7h.7v.72h.71v.7H334v.71h-.69v.71h1.41v.69h1.41v-.7h2.82v-1.42h-1.4v-.7h1.4v-.7h-1.4v-2.12h-.72v-.72h.72v-.7h.7v1.39h.69v-2.11h-.69v-.7h.69v-.7h-2.1v.7h.69v.71h-.7v1.41h-.7v.71h.7v.69h-3.55v-.69h-1.4v-.72h.69v-.71h-2.11v-.72h1.41v-.7h-.71v-.7H326.2v.7h-.71v.71h-.7v.71h-.7v1.39h1.39v-.69h-.7Zm7.09-3.53h-.7v.7h.7v.72h.71v1.4h.7v.7h1.4v-1.4H334V318h-.72v-3.54h-1.41v-.71h-.71v-.7h-.7v-.69h-.7v2.11h.7v.71h-.7v.69h.7v-.7h.71v.72h.7Zm-7.78-4.25v4.94H329v-4.94Zm14.84,4.94v-4.93H334v4.93ZM329,327.23V322.3h-4.93v4.93Zm7.08-7.07v-2.11h-.69v2.11Zm-2.83-7.77h-1.39v.68h1.39Zm-2.83,4.24h-.69v.69h.69ZM324.09,318v.7h.68V318Zm9.91,2.84v.69h.69v-.69Z"/><path d="M336.81,321.59h.72v2.12h-1.42V323H334v.7h-.7v1.41h-1.43v1.43h-.7v-1.42h-1.41v-3.53H326.2v-1.43h2.13v.7H329v-.69h-.7v-.72h.7v-.69h-.69v.7h-.72v-.72H326.2v-.7h4.95v.7h.71v.7h-1.41v.72h-.7v.69h.7v-.7h2.11v.71h-.69v.72h-.7v.69h.7V323h-1.4v.72h.7v.69h.7V323h.7v-.7h-.7v-.71h1.4v.69h3.55v-.69Z"/><path d="M324.09,312.38H329v4.94h-4.93Zm.7,4.23h3.52v-3.52h-3.52Z"/><path d="M338.93,317.32H334v-4.93h4.93Zm-4.22-4.23v3.52h3.52v-3.52Z"/><path d="M329,327.23h-4.93V322.3H329ZM324.8,323v3.52h3.52V323Z"/><path d="M330.45,315.21v-.71h-.7v-2.11h.7v.69h.7v.7h.71v.71h1.41V318H334v.72h-.71v.72h-.7v-1.4h-.71v-.72h.69v-.71h-.69v-.72h.7v-.69h-.69v.7h-.71v-.72h-.71Z"/><path d="M337.53,324.41v.7h1.4v1.42h-2.82v-.72h-.7v-.71h.71v-.71Z"/><path d="M336.82,320.87v-1.41h.7v-.71h-.69v-.7h2.1v.7h-.69v.7h.69v2.11h-.69v-1.39h-.7v.7Z"/><path d="M336.11,326.53v.7H334.7v-.69h-1.41v-.71H334v-.71h.71v.71h.71v.72h.71Z"/><path d="M334,318.75h.69v1.4h-1.4v-.7H334v-.72Z"/><path d="M324.79,320.17v-.71h.7v-.71h.71v1.43h-1.41Z"/><path d="M336.1,320.16h-.69v-2.11h.69Z"/><path d="M334.7,325.12v-.7H334v-.72h1.41v1.41h-.7Z"/><path d="M324.78,320.16v.71h.7v.69h-1.39v-1.39h.69Z"/><path d="M333.27,312.39v.68h-1.39v-.68Z"/><path d="M337.53,323.71h1.4v.7h-1.4v-.71Z"/><path d="M331.15,326.53v.7h-1.4v-.69h1.4Z"/><path d="M330.45,315.2v.7h-.7v-.69h.7Z"/><path d="M330.44,316.63v.69h-.69v-.69Z"/><path d="M331.87,317.33h-.7v-.7h.69v.71Z"/><path d="M324.09,318h.68v.7h-.68Z"/><path d="M334,320.88h.69v.69H334Z"/><path d="M336.82,320.87c0,.24,0,.48,0,.72h-.69v-.71Z"/><path d="M331.86,326.54h.7v.69h-.69v-.7Z"/><path class="cls-18" d="M337.53,323.7v.71h-1.41v.71h-.72v-1.41H334V323h2.12v.69Z"/><path class="cls-18" d="M326.2,320.17v-1.43h1.41v.72h.71v.72H326.2Z"/><path class="cls-18" d="M331.86,323v1.41h-.7v-.69h-.7V323Z"/><path class="cls-18" d="M328.32,320.17h.7v.69h-.69v-.7Z"/><path class="cls-18" d="M330.45,320.16v.7h-.7v-.69h.7Z"/><path class="cls-18" d="M331.87,322.28h-.7v-.69h.7c0,.24,0,.47,0,.71Z"/><path class="cls-18" d="M331.86,322.29h.7v.7h-.7c0-.23,0-.47,0-.71Z"/><path class="cls-18" d="M328.33,319.46v-.7H329v.69h-.69Z"/><path class="cls-18" d="M324.79,316.61v-3.52h3.52v3.52Zm.72-2.81v2.1h2.1v-2.1Z"/><path class="cls-18" d="M334.71,313.09h3.52v3.52h-3.52Zm.7,2.81h2.1v-2.1h-2.1Z"/><path class="cls-18" d="M324.8,323h3.52v3.52H324.8Zm.71.71v2.1h2.1v-2.1Z"/><path class="cls-18" d="M331.87,315.92v-.7h.69v.69h-.69Z"/><path class="cls-18" d="M331.86,317.33v-.71h.7v.71Z"/><path class="cls-18" d="M334,318.74v.72h-.71v-.72Z"/><path class="cls-18" d="M334.69,325.12h.72v.71h-.72Z"/><path class="cls-18" d="M336.11,326.54h-.71v-.72h.71Z"/><path d="M325.51,313.8h2.1v2.1h-2.1Z"/><path d="M335.41,315.9v-2.1h2.1v2.1Z"/><path d="M325.51,323.71h2.1v2.1h-2.1Z"/><path class="cls-18" d="M417.59,309.16h20.57v20.56H417.59Zm3.54,10.65h1.42v1.42h3.54v3.54h1.42v1.41H426.1v.7h1.4v-.7h.71v.7h.7v-.7h-.7v-1.42h1.42v-1.41h.71v.71h.71v.71h-.72v.71h-.69v.71h1.41v.69h1.41v-.7h2.82v-1.42h-1.41v-.71h1.41v-.7h-1.41v-2.12h-.71v-.72h.72v-.69h.71v1.39h.69V319.1h-.69v-.71h.69v-.7h-2.1v.71h.69v.7h-.7v1.42h-.7v.71h.69v.69h-3.54v-.69h-1.4v-.72h.69v-.7H426.8v-.72h1.4v-.7h-.7v-.69h-4.95v.7h-.71v.71h-.7v.7h-.7v1.4h1.39v-.7h-.7Zm7.08-3.54h-.69V317h.69v.71h.72v1.41h.7v.7H431v-1.4h-.7v-.72h-.71v-3.54H428.2v-.71h-.7v-.7h-.71V312h-.69v2.11h.7v.71h-.7v.69h.69v-.7h.72v.71h.7ZM420.44,312V317h4.93V312ZM435.28,317V312h-4.94V317Zm-9.91,9.91V322h-4.94v4.93Zm7.08-7.08v-2.11h-.69v2.11ZM429.62,312h-1.4v.69h1.4Zm-2.83,4.25h-.69V317h.69Zm-6.35,1.41v.69h.68v-.69Zm9.91,2.84v.68H431v-.68Z"/><path d="M433.16,321.23h.71v2.12h-1.42v-.7h-2.12v.7h-.7v1.41h-1.42v1.42h-.7v-1.41h-1.42v-3.54h-3.54v-1.42h2.12v.7h.7v-.7h-.7v-.71h.7v-.69h-.7v.69H424v-.71h-1.41v-.7h4.95v.69h.7v.7h-1.4v.72h-.7v.69h.69v-.69h2.12v.7h-.69v.72h-.7v.7h.69v.71H426.8v.71h.71v.7h.69v-1.42h.71v-.69h-.7v-.71h1.4v.69h3.54v-.69Z"/><path d="M420.44,312h4.93V317h-4.93Zm.7,4.23h3.52v-3.52h-3.52Z"/><path d="M435.28,317h-4.94V312h4.94Zm-4.22-4.23v3.52h3.51v-3.52Z"/><path d="M425.37,326.88h-4.94V322h4.94Zm-4.22-4.23v3.52h3.51v-3.52Z"/><path d="M426.8,314.86v-.71h-.7V312h.69v.69h.71v.7h.7v.71h1.42v3.54h.71v.72h-.71v.71h-.69v-1.41h-.72V317h.7v-.71h-.7v-.71h.7v-.69h-.7v.69h-.7v-.71h-.71Z"/><path d="M433.87,324.05v.71h1.41v1.42h-2.82v-.71h-.71v-.72h.72v-.71h1.4Z"/><path d="M433.17,320.52V319.1h.7v-.7h-.69v-.71h2.1v.7h-.69v.71h.69v2.11h-.69v-1.39h-.71v.69h-.71Z"/><path d="M432.46,326.18v.7h-1.41v-.69h-1.41v-.71h.69v-.71H431v.72h.71v.71Z"/><path d="M430.33,318.4h.7v1.4h-1.4v-.7h.71v-.71Z"/><path d="M421.14,319.81v-.7h.7v-.71h.71v1.42h-1.41Z"/><path d="M432.45,319.8h-.69v-2.11h.69Z"/><path d="M431.05,324.77v-.71h-.71v-.71h1.41v1.42h-.7Z"/><path d="M421.13,319.81v.7h.7v.7h-1.39v-1.4h.69Z"/><path d="M429.62,312v.69h-1.4V312Z"/><path d="M433.87,323.35h1.41v.7h-1.4v-.71Z"/><path d="M427.5,326.18v.7h-1.4v-.7h1.4Z"/><path d="M426.79,314.85v.7h-.69v-.69h.69Z"/><path d="M426.79,316.28V317h-.69v-.68Z"/><path d="M428.21,317h-.69v-.71h.69V317Z"/><path d="M420.44,317.69h.68v.69h-.68Z"/><path d="M430.35,320.53H431v.68h-.68Z"/><path d="M433.16,320.51v.72h-.69v-.71h.69Z"/><path d="M428.21,326.18h.7v.7h-.7v-.7Z"/><path class="cls-18" d="M433.88,323.35v.71h-1.41v.71h-.72v-1.42h-1.42v-.7h2.12v.7Z"/><path class="cls-18" d="M422.55,319.81v-1.42H424v.71h.71v.71h-2.12Z"/><path class="cls-18" d="M428.2,322.63v1.42h-.69v-.7h-.71v-.71h1.4Z"/><path class="cls-18" d="M424.67,319.81h.7v.7h-.7v-.7Z"/><path class="cls-18" d="M426.79,319.81v.69h-.69v-.69h.69Z"/><path class="cls-18" d="M428.21,321.93h-.69v-.7h.7c0,.23,0,.47,0,.71Z"/><path class="cls-18" d="M428.21,321.94h.7v.69h-.7v-.71Z"/><path class="cls-18" d="M424.67,319.1v-.69h.7v.69Z"/><path class="cls-18" d="M421.14,316.26v-3.52h3.52v3.52Zm.71-2.81v2.1H424v-2.1Z"/><path class="cls-18" d="M431.06,312.74h3.51v3.52h-3.51Zm.7,2.81h2.1v-2.1h-2.1Z"/><path class="cls-18" d="M421.15,322.65h3.51v3.52h-3.51Zm.7.71v2.1H424v-2.1Z"/><path class="cls-18" d="M428.21,315.56v-.69h.7v.69Z"/><path class="cls-18" d="M428.21,317v-.71h.7V317Z"/><path class="cls-18" d="M430.34,318.39v.71h-.72v-.71Z"/><path class="cls-18" d="M431,324.76h.71v.72H431Z"/><path class="cls-18" d="M432.46,326.18h-.71v-.71h.71Z"/><path d="M421.85,313.45H424v2.1h-2.1Z"/><path d="M431.76,315.55v-2.1h2.1v2.1Z"/><path d="M421.85,323.36H424v2.1h-2.1Z"/></g></g></svg>